<svg width="25" height="24" viewBox="0 0 25 24" fill="none" xmlns="http://www.w3.org/2000/svg">
<path d="M7.11737 20.9998C5.93937 20.9998 4.98438 20.0198 4.98438 18.8098V10.0078C4.98438 9.34279 5.27938 8.71279 5.78438 8.29779L11.6514 3.47979C12.0262 3.16937 12.4977 2.99951 12.9844 2.99951C13.4711 2.99951 13.9425 3.16937 14.3174 3.47979L20.1834 8.29779C20.6894 8.71279 20.9844 9.34279 20.9844 10.0078V18.8098C20.9844 20.0198 20.0294 20.9998 18.8514 20.9998H7.11737Z" stroke="#75808A" stroke-width="1.5" stroke-linecap="round" stroke-linejoin="round"/>
<path d="M10.4844 21V15.5C10.4844 14.9696 10.6951 14.4609 11.0702 14.0858C11.4452 13.7107 11.9539 13.5 12.4844 13.5H13.4844C14.0148 13.5 14.5235 13.7107 14.8986 14.0858C15.2737 14.4609 15.4844 14.9696 15.4844 15.5V21" stroke="#75808A" stroke-width="1.5" stroke-linecap="round" stroke-linejoin="round"/>
</svg>
