<svg id="a8a5ba49-e1e8-40a5-9cf0-6f554e9ccea4" data-name="Layer 1" xmlns="http://www.w3.org/2000/svg" width="2560" height="1423" viewBox="0 0 2560 1423"><path d="M-129.41,1363.84l13.77,7.26c13.58,7.4,40.54,21.72,67.49,25.49,27.92,3.76,55.63-3.73,82.42-9.06,26.41-5.54,53.62-8.94,80.57-5.41,27.34,3.65,54,14.57,81,16.39,27.88,2,55.59-5.53,82.52-3.57,26.73,1.81,54,12.73,80.73,3.65,27.11-8.95,53.08-38.24,79.77-49,27.84-11,55.64-3.48,82.75,9.14,26.93,12.62,54.35,31,81.4,40,27.63,9.11,53.94,9.12,82.49-5.41,25.85-14.4,53-43.69,79.64-56.28s53.61-9.17,80.63-1.77c27.79,7.27,54.11,18.19,83,23.65,26.41,5.47,53.87,5.48,80.7,1.85,27-3.5,53.57-11,80.5-9,27.69,1.82,55.93,12.74,82.92,18.2,26.6,5.47,53.87,5.48,80.63-1.76,27-7.38,53.38-21.68,80.3-20,27.88,1.72,56.07,20.13,83,23.66,26.57,3.65,53.64-7.24,80.5-9,27.24-1.93,53.88,5.58,80.93,14.55,28,9.11,56.06,20,83,21.85,26.74,2,53.68-5.53,80.47-10.87,27.17-5.54,53.62-8.93,80.37-16.31,27.91-7.24,55.37-18.13,82.09-27.22,26.53-9,53.48-16.43,80.4-14.47,27.5,1.82,54,12.73,82.82,12.74,26.12,0,53.58-10.87,80.57-5.41s54.27,27.28,81.46,43.65c27.95,16.37,54.27,27.28,83.08,27.3,26.32,0,53.58-10.88,80.21-25.42,26.81-14.39,53.18-32.78,80-34.47,27.63-1.69,55.93,12.63,82.82,12.75,26.51-.09,53.52-14.39,66.83-21.78l13.31-7.25,1.79,98.13h-13.64l-67,0-82.59,0-80.66,0-80.67,0-82.59,0-80.66,0-80.67,0-82.59,0-80.66,0-82.59,0-80.67,0-80.66,0-82.59,0-80.67,0-80.66,0-82.59,0-80.67,0-80.66,0-82.59,0-80.66,0-80.67,0-82.59,0-80.66,0-80.67,0-82.59,0-80.66,0-82.59,0-80.67,0-80.66,0-82.59,0-80.67,0-80.66,0-82.59,0-67.22,0h-13.45Z" fill="#f76c6c" opacity="0.5"/><path d="M1795.38-103.79l2.2,5.69c2.09,5.71,6.37,16.9,14.09,24.1,8,7.4,19.67,10.52,30.3,14.25,10.57,3.57,20.7,8.12,28.5,15.23S1883.65-27.43,1892-21c8.62,6.71,20.25,9.83,28.55,16.34s13.77,16.39,25.6,18.68,30.08-3.06,42.46-1.41c12.82,1.82,19.59,10.61,24.48,21.19s7.91,23.37,14,32.56c6.19,9.37,14.92,15,29.13,15.64,13.28.11,31.83-5.14,44.78-4.18s20.78,8,27.33,16.62c6.85,8.7,12,18.47,19.84,26.73,7,7.73,16.09,13.62,26.18,18s21.36,7.34,29.65,13.85c8.6,6.62,14.41,16.8,21.59,24.65a55.64,55.64,0,0,0,27.33,16.62c11.35,3,24.78,3.26,33.16,9.67,8.69,6.63,12,19.63,19.83,26.73,7.63,7.08,20.16,8.77,29.66,13.86,9.67,5.11,16.06,13.65,22.11,22.84,6.33,9.45,12.07,19.58,20.42,26s19.61,9.42,30.24,13.15c10.82,3.73,20.7,8.12,32,11.07,11.62,3.25,24.28,5,36.11,7.32s23.11,5.26,31.4,11.77c8.54,6.58,13.77,16.39,23.33,22.57,8.66,5.6,21.33,7.38,28.5,15.23s9.12,21.94,12.8,33.95c3.94,12.17,9.12,21.94,18.67,28.12,8.73,5.64,21.33,7.38,34.9,7.6s28.34-1,37.8,4.13c9.72,5.29,14.44,16.77,23.33,22.57,8.82,5.65,22.45,6,29.27,6.11l6.78.11-31.4,37.45-4.52-2.93L2665,497.3l-27.39-17.72-26.76-17.31L2584.12,445l-27.39-17.72L2530,409.93l-26.76-17.31-27.39-17.72-26.76-17.31-27.39-17.72-26.76-17.31-26.75-17.31-27.4-17.72L2314,270.23l-26.76-17.31-27.39-17.72-26.76-17.31-26.75-17.31L2179,182.86l-26.76-17.31-26.76-17.31-27.39-17.72-26.75-17.31L2044.55,95.9l-27.39-17.72-26.76-17.3L1963,43.15l-26.76-17.3L1909.5,8.54,1882.11-9.18l-26.76-17.31L1828.59-43.8,1801.2-61.52l-22.3-14.42-4.45-2.89Z" fill="#f8e9a1"/><path d="M2678.05,531.19l-2.3-5.71c-2.2-5.73-6.68-17-14.49-24.11-8.13-7.36-19.74-10.36-30.37-14-10.56-3.47-20.72-7.93-28.6-15s-13.44-17.06-21.85-23.46c-8.69-6.67-20.31-9.66-28.68-16.12s-14-16.35-25.79-18.52-29.79,3.45-42.1,1.93c-12.76-1.67-19.67-10.45-24.74-21s-8.35-23.45-14.54-32.63c-6.35-9.36-15.13-14.95-29.25-15.41-13.17.05-31.47,5.56-44.34,4.75s-20.79-7.84-27.48-16.41c-7-8.69-12.32-18.46-20.24-26.69-7.09-7.7-16.26-13.53-26.36-17.82s-21.35-7.14-29.72-13.59c-8.66-6.57-14.65-16.76-21.93-24.58a55.67,55.67,0,0,0-27.47-16.41c-11.33-2.88-24.66-3-33.11-9.35-8.76-6.57-12.36-19.63-20.24-26.69-7.72-7-20.19-8.6-29.72-13.6-9.7-5-16.22-13.57-22.42-22.75-6.48-9.44-12.39-19.58-20.81-26s-19.66-9.25-30.29-12.88c-10.81-3.63-20.71-7.93-32-10.77-11.6-3.13-24.21-4.76-36-6.94s-23-5-31.41-11.48c-8.61-6.52-14-16.34-23.62-22.45-8.72-5.55-21.32-7.18-28.6-15s-9.51-22-13.42-34c-4.16-12.22-9.5-22-19.11-28.1-8.78-5.59-21.32-7.18-34.8-7.24s-28.1,1.33-37.59-3.71c-9.76-5.21-14.68-16.72-23.62-22.46-8.88-5.58-22.41-5.81-29.18-5.8l-6.73,0L1775.54-81l4.55,2.89,22.36,14.23L1830-46.38l26.91,17.11,26.92,17.12,27.55,17.52,26.92,17.12,26.91,17.11,27.55,17.52,26.92,17.12,27.55,17.52,26.92,17.12L2101.07,126l27.55,17.53,26.92,17.11,26.91,17.12L2210,195.27l26.91,17.11,26.91,17.12L2291.39,247l26.91,17.12,26.92,17.11,27.55,17.53,26.91,17.11L2426.6,333l27.55,17.52,26.92,17.11,27.55,17.53,26.92,17.11,26.91,17.12L2590,436.92,2616.92,454l26.91,17.12,27.56,17.52,22.42,14.27,4.49,2.85Z" fill="#f8e9a1"/></svg>