<svg id="e64c18e1-600b-40d1-872d-696247cdda73" data-name="Layer 1" xmlns="http://www.w3.org/2000/svg" width="750" height="1334" viewBox="0 0 750 1334"><path d="M568.35-104.38,561-84.73c-7.34,19.65-21.92,58.78-39.9,96.59A716,716,0,0,1,458.32,119c-23.95,33.76-51,65.7-71.06,102.28-19.69,36.15-32.43,76.58-52.41,113.22-19.72,36-46.87,68.12-71.06,102.28C240,470.3,219,506.12,205.63,545.53c-13.82,40.35-20.5,84.67-43.1,118.67C139.37,699,99.66,724,78,758.61c-22.14,35.25-26.58,81.1-46.22,116.84-20,36.39-55.08,63.31-77.27,98.65-22,35.13-30.3,77.83-34.63,99.46l-4.33,21.63-49.68-29.11,10.44-17.83,52.33-89.31L-8.56,851.8,54.21,744.66,117,637.52l62.78-107.15,62.29-106.32,62.78-107.14L367.6,209.77l62.78-107.15L493.15-4.52l52.23-89.15,10.55-18Z" fill="#f8e9a1"/><path d="M-144.5,1056.38l7.34-19.65c7.34-19.65,21.93-58.78,39.91-96.59A715.89,715.89,0,0,1-34.48,833c23.95-33.76,51-65.7,71.06-102.28C56.27,694.57,69,654.14,89,617.5c19.72-36,46.87-68.12,71.06-102.28,23.8-33.52,44.79-69.34,58.16-108.75C232,366.12,238.71,321.8,261.31,287.8,284.48,253,324.19,228,345.82,193.39,368,158.14,372.41,112.29,392,76.55c20-36.39,55.08-63.31,77.27-98.65,22-35.13,30.3-77.83,34.64-99.46l4.33-21.63L558-114.08,547.51-96.25,495.18-6.94,432.41,100.2,369.63,207.34,306.86,314.48,244.09,421.63,181.79,528,119,635.09,56.24,742.23-6.53,849.38-69.31,956.52l-52.23,89.15-10.54,18Z" fill="#f8e9a1"/><g opacity="0.5"><path d="M850,83.31l-6.11,5c-6.16,4.9-18.17,14.71-24.1,26.45-6.07,12.19-5.62,26.36-6.28,39.7-.49,13.2-2.34,26.38-8.13,38.17-5.92,11.94-15.94,22.25-20.74,34.34-5,12.51-4.57,26.67-9.46,38.73s-14.87,22.58-13.37,36.58,14.63,31.52,17.13,45.82c2.45,14.86-5.76,26.31-16.82,36.5s-25.46,19.37-34.41,30.2c-9.1,11.07-12.78,23.21-8.39,39.05,4.69,14.58,17.79,32.48,21.32,47.1s-2.19,26.42-10.23,37.53c-8.07,11.48-18,21.62-25.21,34-6.84,11.18-10.68,23.85-12.32,36.9s-1.15,26.74-6,38.8c-4.91,12.44-15.14,23.46-22.06,34.91a67.14,67.14,0,0,0-10.23,37.53c.5,13.79,5.05,28.61.3,40.72-4.88,12.55-19.42,22.17-25.21,34-5.82,11.59-3.32,26.09-6,38.81-2.69,12.92-10.74,23.83-19.68,34.66C594.74,880,584.53,890.92,579.73,903s-4.31,25.79-5,39.13c-.6,13.55-2.33,26.38-1.81,40.08.28,14.21,2.72,28.88,4.23,42.88s2,27.69-2.88,39.76c-4.88,12.35-14.87,22.58-18.9,35.87-3.65,12-1.21,26.72-8.12,38.16s-23.3,20-36.52,29.57c-13.34,9.88-23.3,20-27.33,33.31-3.68,12.14-1.21,26.72,3.46,41.68s11.47,30.56,8.7,43.27c-2.88,13-15.09,23.48-18.91,35.86-3.64,12.25.83,27.34,3.23,34.84l2.32,7.47-56.8-17.21,1.91-6.29,9.37-30.92,11.54-38.1,11.28-37.21,11.28-37.21,11.55-38.1,11.27-37.21,11.28-37.22,11.55-38.09,11.28-37.22L539.28,972l11.28-37.22,11.28-37.21,11.55-38.09,11.27-37.22,11.28-37.21L607.49,747l11.28-37.21L630,672.54l11.55-38.1,11.28-37.21L664.15,560l11.54-38.1L687,484.71l11.28-37.21,11.54-38.1,11.28-37.21,11.55-38.1,11.28-37.21,11.27-37.21,11.55-38.1L778,184.36l11.28-37.22,11.54-38.09,9.4-31,1.88-6.21Z" fill="#f76c6c"/><path d="M400.34,1340.23l6.09-5.14c6.14-5,18.12-15.06,24-26.89,6-12.27,5.4-26.36,5.94-39.65.37-13.15,2.1-26.31,7.81-38.17,5.84-12,15.81-22.53,20.52-34.67,4.93-12.56,4.35-26.64,9.14-38.76s14.74-22.82,13.1-36.72-15-31-17.63-45.19c-2.6-14.74,5.54-26.32,16.55-36.72s25.41-19.87,34.3-30.86c9-11.24,12.62-23.4,8.06-39.07C523.35,954,510,936.49,506.34,922s2-26.34,9.93-37.58c8-11.62,17.91-22,25-34.39,6.76-11.29,10.5-24,12-37s.9-26.64,5.7-38.76c4.82-12.5,15-23.71,21.83-35.26,6.79-11.38,10.51-24,9.94-37.59s-5.34-28.36-.68-40.51c4.79-12.6,19.31-22.52,25-34.39,5.73-11.66,3.09-26,5.7-38.75,2.58-12.92,10.56-24,19.45-35,9.1-11.41,19.25-22.53,24-34.68s4.09-25.75,4.63-39c.48-13.5,2.1-26.3,1.45-39.93-.41-14.13-3-28.67-4.65-42.57S663.41,369.1,668.2,357c4.8-12.41,14.74-22.82,18.66-36.14,3.56-12.08,1-26.62,7.81-38.17s23.22-20.48,36.42-30.28c13.3-10.15,23.22-20.48,27.14-33.8,3.59-12.16,1-26.62-3.85-41.39s-11.81-30.14-9.15-42.85c2.78-13.06,14.94-23.72,18.66-36.14,3.55-12.27-1.08-27.18-3.56-34.59l-2.4-7.38L815.16,72l-1.86,6.31-9.13,31-11.25,38.18-11,37.3L771,222.1,759.7,260.29l-11,37.29-11,37.3-11.25,38.19-11,37.29-11.24,38.19-11,37.29-11,37.3L671,561.32l-11,37.3-11,37.3L637.81,674.1l-11,37.3-11,37.29-11.24,38.19-11,37.29-11,37.3-11.24,38.18-11,37.3-11,37.3-11.24,38.18-11,37.3-11.25,38.18-11,37.3-11,37.29-11.25,38.19-11,37.29-11,37.3-11.25,38.18-9.15,31.08-1.83,6.22Z" fill="#f76c6c"/></g></svg>