<svg xmlns="http://www.w3.org/2000/svg" width="25" height="24" viewBox="0 0 25 24" fill="none">
  <g clip-path="url(#clip0_254_7496)">
    <path d="M20.0844 7.66667L19.0204 18.3974C18.8595 20.0241 18.7797 20.8367 18.4124 21.4513C18.0902 21.9924 17.6164 22.425 17.0507 22.6946C16.4085 23 15.6004 23 13.979 23H10.9897C9.36964 23 8.56024 23 7.91804 22.6933C7.3519 22.4239 6.87762 21.9913 6.55511 21.4501C6.19031 20.8367 6.10924 20.0241 5.94711 18.3974L4.88437 7.66667M14.3844 15.9722V9.58333M10.5844 15.9722V9.58333M2.98438 4.47222H8.83004M8.83004 4.47222L9.31898 1.058C9.46084 0.437 9.97257 0 10.5603 0H14.4084C14.9962 0 15.5066 0.437 15.6498 1.058L16.1387 4.47222M8.83004 4.47222H16.1387M16.1387 4.47222H21.9844" stroke="#75808A" stroke-linecap="round" stroke-linejoin="round"/>
  </g>
  <defs>
    <clipPath id="clip0_254_7496">
      <rect width="24" height="24" fill="white" transform="translate(0.984375)"/>
    </clipPath>
  </defs>
</svg>