<svg id="ff4933ae-8746-4c64-a016-3c6ba76f5ad8" data-name="Layer 1" xmlns="http://www.w3.org/2000/svg" width="1280" height="800" viewBox="0 0 1280 800"><path d="M-79.3,774.78l6.8,3c6.7,3,20,8.86,33.32,10.39,13.78,1.52,27.47-1.54,40.7-3.73,13-2.28,26.48-3.67,39.79-2.25,13.5,1.49,26.68,5.94,40,6.67,13.77.79,27.46-2.28,40.75-1.49s26.67,5.18,39.87,1.46c13.39-3.66,26.22-15.64,39.41-20.06,13.75-4.5,27.47-1.44,40.86,3.71s26.82,12.65,40.18,16.31c13.64,3.71,26.63,3.7,40.73-2.25,12.78-5.89,26.18-17.86,39.35-23s26.48-3.76,39.82-.75c13.72,3,26.71,7.41,41,9.63a142.92,142.92,0,0,0,39.85.72c13.34-1.43,26.46-4.5,39.75-3.71,13.67.73,27.62,5.18,40.94,7.4A102.89,102.89,0,0,0,603.6,776c13.31-3,26.37-8.88,39.66-8.19,13.77.69,27.68,8.21,41,9.63,13.12,1.49,26.49-3,39.75-3.71,13.45-.8,26.61,2.26,40,5.91,13.83,3.71,27.68,8.16,41,8.89s26.51-2.27,39.74-4.46c13.42-2.28,26.48-3.67,39.7-6.7,13.78-3,27.34-7.43,40.54-11.15s26.42-6.73,39.71-5.94c13.58.73,26.67,5.18,40.89,5.17,12.9,0,26.47-4.46,39.79-2.24s26.79,11.13,40.21,17.8c13.8,6.68,26.79,11.13,41,11.12,13,0,26.46-4.46,39.61-10.41s26.28-13.41,39.54-14.11c13.64-.7,27.61,5.14,40.89,5.17,13.09,0,26.43-5.89,33-8.92l6.57-3L1287,801h-39.83l-40.79,0h-39.83l-39.83,0h-40.79l-39.83,0h-39.83l-40.79,0H925.65l-40.78,0H845l-39.83,0H764.42l-39.84,0H684.75l-40.78,0H604.13l-39.83,0H523.52l-39.84,0H443.85l-40.78,0H363.23l-39.83,0H242.78l-40.78,0H162.16l-39.83,0H81.55l-39.84,0H1.88l-40.78,0H-78.74Z" fill="#f76c6c" opacity="0.5"/></svg>