<svg id="ee712202-f1c1-44b5-b116-c1b79fb318fd" data-name="Layer 1" xmlns="http://www.w3.org/2000/svg" width="1280" height="800" viewBox="0 0 1280 800"><path d="M-26,760.83l6.64,4.4c6.54,4.49,19.55,13.16,32.54,15.45C26.64,783,40,778.46,52.9,775.25c12.73-3.34,25.84-5.38,38.83-3.23,13.18,2.23,26.06,8.85,39,10,13.44,1.2,26.79-3.31,39.77-2.12s26,7.74,38.91,2.26c13.06-5.4,25.57-23.1,38.43-29.62,13.41-6.63,26.81-2.07,39.89,5.58S314,776.88,327,782.32c13.32,5.53,26,5.55,39.76-3.23,12.45-8.7,25.51-26.4,38.35-34s25.84-5.52,38.87-1c13.39,4.42,26.08,11,40,14.36,12.74,3.32,26,3.34,38.9,1.16s25.82-6.62,38.8-5.42c13.34,1.12,27,7.73,40,11.05,12.83,3.32,26,3.35,38.86-1s25.72-13.08,38.7-12c13.44,1.05,27,12.2,40,14.35,12.8,2.23,25.85-4.35,38.79-5.42,13.13-1.15,26,3.41,39,8.85,13.51,5.53,27,12.15,40,13.26s25.87-3.31,38.78-6.53c13.09-3.33,25.83-5.37,38.72-9.82,13.45-4.37,26.68-10.94,39.56-16.42s25.76-9.91,38.74-8.71c13.26,1.11,26,7.73,39.93,7.75,12.59,0,25.82-6.55,38.83-3.23s26.17,16.53,39.28,26.45c13.49,9.92,26.18,16.53,40.06,16.56,12.69,0,25.82-6.55,38.65-15.33s25.61-19.8,38.56-20.81c13.31-1,27,7.67,39.92,7.75,12.78,0,25.79-8.67,32.2-13.13l6.41-4.38.92,59.36h-6.58l-32.3-.06-39.81-.07-38.88-.07-38.88-.06-39.81-.07-38.88-.07-38.88-.07-39.81-.06L955,802.1l-39.8-.07L876.27,802l-38.88-.07-39.81-.06-38.88-.07-38.88-.07L680,801.62l-38.88-.06-38.88-.07-39.81-.07-38.88-.07-38.88-.07-39.8-.06L406,801.15l-38.88-.07L327.31,801,288.43,801l-39.81-.07-38.88-.07-38.88-.07-39.81-.07-38.88-.06-38.88-.07-39.8-.07-32.4-.06h-6.48Z" fill="#f76c6c" opacity="0.5"/><path d="M641.67-89.47l2.58,5.53c2.48,5.55,7.52,16.42,15.71,23.08,8.53,6.83,20.35,9.15,31.21,12.14C702-45.89,712.38-42,720.65-35.48s14.32,16.14,23.08,22C752.79-7.35,764.61-5,773.33.88s14.86,15.41,26.82,16.89,29.8-5.11,42.26-4.31c12.92.93,20.28,9.24,25.88,19.46s9.5,22.77,16.16,31.52c6.83,8.92,15.92,14,30.14,13.61,13.25-.8,31.4-7.31,44.39-7.24s21.28,6.59,28.41,14.71c7.43,8.21,13.26,17.6,21.62,25.31,7.49,7.23,17,12.48,27.35,16.16s21.81,5.86,30.53,11.79c9,6,15.53,15.77,23.22,23.11a55.72,55.72,0,0,0,28.41,14.71c11.53,2.2,25,1.55,33.74,7.38,9.13,6,13.36,18.75,21.62,25.31,8.09,6.54,20.72,7.37,30.54,11.79,10,4.43,17,12.52,23.62,21.27,7,9,13.39,18.71,22.15,24.58s20.22,8.06,31.08,11.05c11,3,21.21,6.68,32.67,8.85,11.82,2.44,24.57,3.35,36.53,4.83s23.41,3.66,32.13,9.59c9,6,14.86,15.41,24.82,20.92,9,5,21.78,5.9,29.48,13.24s10.59,21.26,15.09,33c4.77,11.88,10.6,21.27,20.56,26.78,9.09,5,21.78,5.9,35.34,5.19s28.2-2.92,38,1.54c10.06,4.6,15.56,15.73,24.82,20.91s22.81,4.49,29.62,4.09l6.78-.35-28.76,39.5-4.72-2.61-23.16-12.82-28.55-15.8L1494,419.39,1466.16,404l-28.54-15.81-27.88-15.43-27.88-15.43-28.54-15.81-27.88-15.43-28.55-15.8L1269,294.81l-27.88-15.43-28.55-15.81-27.87-15.43-27.88-15.44-28.55-15.8-27.87-15.43L1072.54,186,1044,170.23l-27.87-15.43-27.88-15.44-28.55-15.8-27.87-15.44L903.94,92.69l-28.55-15.8L847.52,61.45,819,45.65,791.1,30.21,763.22,14.78,734.67-1,706.8-16.46,678.92-31.89l-28.55-15.8L627.14-60.56l-4.64-2.57Z" fill="#f8e9a1"/><path d="M1565.77,483.55l-2.69-5.54c-2.58-5.56-7.82-16.45-16.1-23.06-8.62-6.79-20.41-9-31.26-11.87-10.78-2.74-21.21-6.5-29.56-13s-14.58-16.1-23.41-21.91c-9.13-6.05-20.92-8.25-29.71-14.12s-15.09-15.35-27-16.71-29.48,5.48-41.87,4.82c-12.85-.8-20.34-9.09-26.13-19.31s-9.93-22.82-16.74-31.56c-7-8.9-16.11-13.87-30.23-13.37-13.14,1-31,7.71-43.92,7.78s-21.28-6.4-28.53-14.49c-7.56-8.19-13.56-17.58-22-25.24-7.6-7.2-17.14-12.38-27.51-16s-21.79-5.66-30.58-11.53c-9.1-6-15.76-15.71-23.57-23A55.65,55.65,0,0,0,1086.4,221c-11.49-2.09-24.81-1.28-33.67-7.06-9.19-5.95-13.67-18.73-22-25.24-8.18-6.49-20.73-7.19-30.58-11.53C990.1,172.77,983,164.7,976.2,156c-7.11-9-13.71-18.69-22.54-24.5s-20.25-7.88-31.1-10.78c-11-2.88-21.21-6.49-32.64-8.55-11.79-2.33-24.47-3.09-36.38-4.45s-23.33-3.43-32.12-9.31c-9-5.92-15.09-15.34-25.1-20.78-9.08-4.93-21.76-5.7-29.56-13S755.77,43.3,751,31.54c-5-11.91-11-21.29-21-26.73-9.14-5-21.76-5.7-35.2-4.84S666.9,3.22,657.07-1.16C647-5.68,641.28-16.82,632-21.94c-9.24-5-22.75-4.27-29.51-3.79l-6.72.43,27.7-40.09,4.74,2.58,23.28,12.65,28.69,15.6,28,15.23,28,15.23,28.69,15.59,28,15.23,28,15.23,28.7,15.6,28,15.23,28.69,15.59,28,15.23,28,15.23,28.7,15.6,28,15.23,28,15.23,28.69,15.59,28,15.24,28,15.23,28.69,15.59,28,15.23,28,15.23,28.7,15.6,28,15.23,28,15.23L1330,318.65l28,15.23,28.7,15.6,28,15.23,28,15.23,28.69,15.59,28,15.23,28,15.24,28.69,15.59,23.35,12.69,4.67,2.54Z" fill="#f8e9a1"/></svg>