<svg id="b1bcfaf2-0160-4b03-9cba-f70fc168f0ab" data-name="Layer 1" xmlns="http://www.w3.org/2000/svg" width="1280" height="800" viewBox="0 0 1280 800"><rect width="1280" height="800" fill="#eddcc3"/><rect x="135" y="91.07" width="1007.25" height="671.5" fill="#eddcc3"/><g opacity="0.16"><polyline points="303.84 142.81 303.84 163.71 303.84 238.35 303.84 312.99 303.84 387.62 303.84 462.26 303.84 536.9 303.84 611.54 303.84 686.17 303.84 709.72" fill="none" stroke="#231f20" stroke-miterlimit="10" stroke-width="4"/><polyline points="378.48 710.57 378.48 709.72 378.48 686.17 378.48 611.54 378.48 536.9 378.48 462.26 378.48 387.62 378.48 312.99 378.48 238.35 378.48 163.71 378.48 142.81" fill="none" stroke="#231f20" stroke-miterlimit="10" stroke-width="4"/><polyline points="453.12 710.57 453.12 709.72 453.12 686.17 453.12 611.54 453.12 536.9 453.12 462.26 453.12 387.62 453.12 312.99 453.12 238.35 453.12 163.71 453.12 142.81" fill="none" stroke="#231f20" stroke-miterlimit="10" stroke-width="4"/><polyline points="527.76 710.57 527.76 709.72 527.76 686.17 527.76 611.54 527.76 536.9 527.76 462.26 527.76 387.62 527.76 312.99 527.76 238.35 527.76 163.71 527.76 142.81" fill="none" stroke="#231f20" stroke-miterlimit="10" stroke-width="4"/><polyline points="602.39 710.57 602.39 709.72 602.39 686.17 602.39 611.54 602.39 536.9 602.39 462.26 602.39 387.62 602.39 312.99 602.39 238.35 602.39 163.71 602.39 142.81" fill="none" stroke="#231f20" stroke-miterlimit="10" stroke-width="4"/><polyline points="677.03 710.57 677.03 709.72 677.03 686.17 677.03 611.54 677.03 536.9 677.03 462.26 677.03 387.62 677.03 312.99 677.03 238.35 677.03 163.71 677.03 142.81" fill="none" stroke="#231f20" stroke-miterlimit="10" stroke-width="4"/><polyline points="751.67 710.57 751.67 709.72 751.67 686.17 751.67 611.54 751.67 536.9 751.67 462.26 751.67 387.62 751.67 312.99 751.67 238.35 751.67 163.71 751.67 142.81" fill="none" stroke="#231f20" stroke-miterlimit="10" stroke-width="4"/><polyline points="826.31 710.57 826.31 709.72 826.31 686.17 826.31 611.54 826.31 536.9 826.31 462.26 826.31 387.62 826.31 312.99 826.31 238.35 826.31 163.71 826.31 142.81" fill="none" stroke="#231f20" stroke-miterlimit="10" stroke-width="4"/><polyline points="900.94 710.57 900.94 709.72 900.94 686.17 900.94 611.54 900.94 536.9 900.94 462.26 900.94 387.62 900.94 312.99 900.94 238.35 900.94 163.71 900.94 142.81" fill="none" stroke="#231f20" stroke-miterlimit="10" stroke-width="4"/><polyline points="975.58 710.57 975.58 709.72 975.58 686.17 975.58 611.54 975.58 536.9 975.58 462.26 975.58 387.62 975.58 312.99 975.58 238.35 975.58 163.71 975.58 142.81" fill="none" stroke="#231f20" stroke-miterlimit="10" stroke-width="4"/><polyline points="1016.49 686.17 1016.35 686.17 975.58 686.17 900.94 686.17 826.31 686.17 751.67 686.17 677.03 686.17 602.39 686.17 527.76 686.17 453.12 686.17 378.48 686.17 303.84 686.17 260.47 686.17" fill="none" stroke="#231f20" stroke-miterlimit="10" stroke-width="4"/><polyline points="1016.49 611.54 1016.35 611.54 975.58 611.54 900.94 611.54 826.31 611.54 751.67 611.54 677.03 611.54 602.39 611.54 527.76 611.54 453.12 611.54 378.48 611.54 303.84 611.54 260.47 611.54" fill="none" stroke="#231f20" stroke-miterlimit="10" stroke-width="4"/><polyline points="1016.49 536.9 1016.35 536.9 975.58 536.9 900.94 536.9 826.31 536.9 751.67 536.9 677.03 536.9 602.39 536.9 527.76 536.9 453.12 536.9 378.48 536.9 303.84 536.9 260.47 536.9" fill="none" stroke="#231f20" stroke-miterlimit="10" stroke-width="4"/><polyline points="1016.49 462.26 1016.35 462.26 975.58 462.26 900.94 462.26 826.31 462.26 751.67 462.26 677.03 462.26 602.39 462.26 527.76 462.26 453.12 462.26 378.48 462.26 303.84 462.26 260.47 462.26" fill="none" stroke="#231f20" stroke-miterlimit="10" stroke-width="4"/><polyline points="1016.49 387.62 1016.35 387.62 975.58 387.62 900.94 387.62 826.31 387.62 751.67 387.62 677.03 387.62 602.39 387.62 527.76 387.62 453.12 387.62 378.48 387.62 303.84 387.62 260.47 387.62" fill="none" stroke="#231f20" stroke-miterlimit="10" stroke-width="4"/><polyline points="1016.49 312.99 1016.35 312.99 975.58 312.99 900.94 312.99 826.31 312.99 751.67 312.99 677.03 312.99 602.39 312.99 527.76 312.99 453.12 312.99 378.48 312.99 303.84 312.99 260.47 312.99" fill="none" stroke="#231f20" stroke-miterlimit="10" stroke-width="4"/><polyline points="1016.49 238.35 1016.35 238.35 975.58 238.35 900.94 238.35 826.31 238.35 751.67 238.35 677.03 238.35 602.39 238.35 527.76 238.35 453.12 238.35 378.48 238.35 303.84 238.35 260.47 238.35" fill="none" stroke="#231f20" stroke-miterlimit="10" stroke-width="4"/><polyline points="1016.49 163.71 1016.35 163.71 975.58 163.71 900.94 163.71 826.31 163.71 751.67 163.71 677.03 163.71 602.39 163.71 527.76 163.71 453.12 163.71 378.48 163.71 303.84 163.71 260.47 163.71" fill="none" stroke="#231f20" stroke-miterlimit="10" stroke-width="4"/></g><path d="M284.93,454.24c92.87,57.5,346.21,171.4,392.59,154.9,97.86-34.81,287.07-207.07,287.07-207.07s-37-3.14-19.7-15.8,66.81-33.89,62.38-2.13S991,457.78,988.11,435.79,976,419.2,976,419.2,764.27,603.68,679.82,623.35,314.79,511,283,494.91,284.93,454.24,284.93,454.24Z" fill="#419f81"/><path d="M725.17,313.65c-.06,5.16-3.31,13.38-1.25,13.83s5.2-11.59,5.6-15.49-4.32-1.52-4.34.07Z" fill="#3b3b4c"/><path d="M729.39,310.38l-2.39-.17-1.81-.13s.59-7.25,1.45-8.51c1.34-2,1.85-14.21,2.28-16.54.05-.26.1-.4.15-.39C730.1,284.94,731.15,300.43,729.39,310.38Z" fill="#fff"/><path d="M720.84,309.15c1.62,3,11.36,3.45,13.41,2.64s2.87-3,1.32-2.34-4.92.7-6.9.3-5.53-.32-6.78-1.83C721.35,307.26,719.78,307.15,720.84,309.15Z" fill="#1f1f39"/><path d="M728.92,285c.45,5.78-.57,21.53-1.92,25.18l-1.81-.13s.59-7.25,1.45-8.51C728,299.61,728.49,287.36,728.92,285Z" fill="#1f1f39" opacity="0.18"/><path d="M704.4,213.64c4.54,2.25,10.43,8.62,11.7,7s-8-9.52-11.32-11.54S701.6,212.26,703,213Z" fill="#3b3b4c"/><path d="M703.3,208.52l-1.17,2-.88,1.54s-6.16-3.6-6.9-4.89c-1.17-2-11.78-7.69-13.67-9.07-.2-.15-.3-.25-.27-.29C681.11,197.07,695.25,202.73,703.3,208.52Z" fill="#fff"/><path d="M698.58,215.56c3.38-.14,7.88-8.58,8-10.73s-1.43-3.82-1.51-2.17a14.59,14.59,0,0,1-2.67,6.23c-1.19,1.58-2.64,4.75-4.51,5.21C697.12,214.3,696.35,215.65,698.58,215.56Z" fill="#1f1f39"/><path d="M680.68,198.14c5.31,2.07,18.8,9.68,21.45,12.42l-.88,1.54s-6.16-3.6-6.9-4.89C693.18,205.18,682.57,199.52,680.68,198.14Z" fill="#1f1f39" opacity="0.18"/><path d="M700.41,266.34c3.87-3.29,12-6.17,11.05-8s-11.93,3.61-15.08,5.82,1.65,4.18,2.84,3.17Z" fill="#3b3b4c"/><path d="M695.27,265.31l1.41,1.88,1.07,1.43s-5.75,4.22-7.23,4.4c-2.32.27-11.72,7.77-13.73,9-.22.13-.35.18-.37.14C676,281.16,686.77,270.42,695.27,265.31Z" fill="#fff"/><path d="M699.86,272.44c1.22-3.16-4.75-10.64-6.67-11.63s-4.06-.2-2.58.52a14.74,14.74,0,0,1,4.66,4.92c1,1.72,3.32,4.31,3,6.2C698.14,273.27,699.06,274.51,699.86,272.44Z" fill="#1f1f39"/><path d="M676.79,282c4-4.06,16.33-13.44,19.89-14.79l1.07,1.43s-5.75,4.22-7.23,4.4C688.2,273.29,678.8,280.79,676.79,282Z" fill="#1f1f39" opacity="0.18"/><path d="M695.06,503.94c1.39-5.29,3.19-19,3.19-19l-14.17-2.81-2.53,20.56,8.38,8Z" fill="#efaea6"/><path d="M696.54,501.86c1.56-.05.65,1.24.74,3.59.21,5.38,18.83,9.32,21.55,10.36,1.4.53,2.2,8.54-5,7-6.24-1.3-26.25-5.39-33.07-6.86a3.19,3.19,0,0,1-2.53-3c-.23-5.21,1.68-12.82,3.62-12.59C684.91,500.08,690.06,502.08,696.54,501.86Z" fill="#1f1f39"/><path d="M618.84,346.49c16.57-3.61,87.88,40.77,93.58,48.44,8.87,11.92-11.89,100.41-11.89,100.41s-22.7,2.11-22.52-.87,13.79-78.62,11.69-82.69-60.07-25-68.78-36.87S618.84,346.49,618.84,346.49Z" fill="#3b3b4c"/><path d="M618.84,346.49c16.57-3.61,87.88,40.77,93.58,48.44,8.87,11.92-11.89,100.41-11.89,100.41s-22.7,2.11-22.52-.87,13.79-78.62,11.69-82.69-60.07-25-68.78-36.87S618.84,346.49,618.84,346.49Z" fill="#1f1f39" opacity="0.4"/><path d="M686.67,518.13l15.87,3.72a2.65,2.65,0,0,1,2,3.18h0a2.65,2.65,0,0,1-3.18,2l-15.86-3.72a2.65,2.65,0,0,1-2-3.18h0A2.65,2.65,0,0,1,686.67,518.13Z" fill="#3b3b4c"/><path d="M642.83,467.44a72.71,72.71,0,1,0,83.75,59.65A72.7,72.7,0,0,0,642.83,467.44Zm22.75,135.34a64.53,64.53,0,1,1,52.94-74.34A64.54,64.54,0,0,1,665.58,602.78Z" fill="#f4ad00"/><path d="M622.45,410.74a0,0,0,0,1,0,0l.13-.14A1,1,0,0,0,622.45,410.74Z" fill="#1f1f39" opacity="0.46"/><path d="M636.78,396.77l23.72,159.1a2.63,2.63,0,0,1-2.22,3h0a2.64,2.64,0,0,1-3-2.22l-23.73-159.1a2.65,2.65,0,0,1,2.23-3h0A2.64,2.64,0,0,1,636.78,396.77Z" fill="#3b3b4c"/><path d="M596.68,387.25c-3.13,5.37,3.44,18.24,11.18,19.35s49.87-3.12,54.23-7.42c4-3.95,2.31-15.22-3.74-16.53-9.4-2-37,5.53-43.78,5.86S600.33,381,596.68,387.25Z" fill="#fff"/><path d="M614.88,519.25c4.74-2.72,15.76-11,15.76-11l-7.93-12.08-16.44,12.62.16,11.59Z" fill="#efaea6"/><path d="M617.4,518.84c1.13,1.08-.43,1.33-2,3-3.69,3.92,6.55,20,7.71,22.62.61,1.38-4.54,7.57-8.53,1.37-3.45-5.36-14.55-22.5-18.29-28.39a3.21,3.21,0,0,1,.35-3.9c3.56-3.81,10.32-7.78,11.52-6.24C610.51,509.3,612.7,514.37,617.4,518.84Z" fill="#1f1f39"/><path d="M693.1,443.5c-2.85,21.71-65.34,73.31-65.34,73.31-11.86.47-15.12-10.7-16-12.94,6.27-11.68,56.81-48.19,55-61.49-1.69-12.15-54.29-24.64-66.19-57.94a40.6,40.6,0,0,1-2.16-9.68,44.5,44.5,0,0,1,.48-12c.57-3.33,3.73-14,13.78-11.15,8.93,2.56,12.76,6.43,15.26,10.73,1.74,3,2.84,6.22,4.57,9.35a22.71,22.71,0,0,0,7.51,8.25C653.57,389,696,421.78,693.1,443.5Z" fill="#3b3b4c"/><path d="M595.3,530.2l11.83,11.2a2.64,2.64,0,0,1,.1,3.74h0a2.64,2.64,0,0,1-3.74.1L591.66,534a2.64,2.64,0,0,1-.1-3.74h0A2.64,2.64,0,0,1,595.3,530.2Z" fill="#3b3b4c"/><circle cx="655.77" cy="542.08" r="16.82" transform="matrix(0.54, -0.84, 0.84, 0.54, -154.52, 801.55)" fill="#3b3b4c"/><line x1="454.28" y1="355.92" x2="550.92" y2="354.32" fill="#eed6c1"/><path d="M551.83,354.11a.41.41,0,0,1,0,.19,1,1,0,0,1-1,.74l-96.63,1.59c-.51,0-.88-.3-.83-.7a1,1,0,0,1,1-.73L551,353.6A.76.76,0,0,1,551.83,354.11Z" fill="#703b10"/><line x1="468.86" y1="368.07" x2="559.49" y2="367.84" fill="#eed6c1"/><path d="M560.35,367.64a.66.66,0,0,1,0,.2.92.92,0,0,1-1,.71l-90.64.23a.7.7,0,0,1-.78-.71.92.92,0,0,1,.95-.71l90.64-.24A.75.75,0,0,1,560.35,367.64Z" fill="#703b10"/><line x1="499.76" y1="360.53" x2="535.93" y2="359.94" fill="#eed6c1"/><path d="M536.85,359.73a.59.59,0,0,1,0,.19,1,1,0,0,1-1,.73l-36.17.6c-.51,0-.88-.31-.83-.7a1,1,0,0,1,1-.73l36.17-.6A.77.77,0,0,1,536.85,359.73Z" fill="#703b10"/><line x1="526.5" y1="345.36" x2="562.67" y2="344.76" fill="#eed6c1"/><path d="M563.59,344.55a1.15,1.15,0,0,1,0,.19,1,1,0,0,1-1,.73l-36.17.6c-.51,0-.88-.3-.83-.7a1,1,0,0,1,1-.73l36.17-.6A.77.77,0,0,1,563.59,344.55Z" fill="#703b10"/><path d="M703.47,324.09c2.95.16,4.79.59,8.67.17s6-1.35,8.93,0c2.63,1.17,4,1.6,7.85-.27,3-1.46,3.21-10.49-.07-9-4.64,2.05-3.41-2-5.21-2.65-2.1-.72-3.65,4.32-10.25,1.36a14.63,14.63,0,0,0-9.63-.55C702.16,313.66,703.47,324.09,703.47,324.09Z" fill="#efaea6"/><path d="M679.37,342.66c2.93.34,4.73.88,8.63.72s6-.9,8.91.57c2.53,1.3,8.8.06,12.11-2.63,3-2.39,3.27-9.33,0-8-13.23,5.37-6.91-.05-8.66-.76-2-.84-4,3.93-10.32.64a15.1,15.1,0,0,0-9.56-1.16C678.8,332.5,679.37,342.66,679.37,342.66Z" fill="#efaea6"/><path d="M632.52,371.66C627.93,382,610,384,600.59,384.44a40.6,40.6,0,0,1-2.16-9.68,9,9,0,0,0,.51-3.74c4.06-1.15,20.67-6.19,29-8.71l4.81-1.47C634.06,365.2,633.82,368.76,632.52,371.66Z" fill="#1f1f39" opacity="0.4"/><path d="M625.69,259.73a15,15,0,0,0,1.18,4c1.06,2.08.88,5.33,3.53,8.41,2,2.31-8.63.64-8.63.64l-10.92-1.87c-.58-4.81,3.59-15.46,3.92-19.86.37-4.82,5.81-9.78,5.81-9.78L625,250.6l.1.21-.14.86A53.79,53.79,0,0,0,625.69,259.73Z" fill="#efaea6"/><path d="M625.14,250.81l-.14.86a53.79,53.79,0,0,0,.69,8.06c-5.78,2.5-9.54-4-8.13-5.92a48.38,48.38,0,0,1,4.45-4.35l3,1.14Z" fill="#1f1f39" opacity="0.14"/><path d="M611.64,262.38c4.31-2,6,5.56,10.65,5.17,2.44-.21,1.73-1.2,2.67-2.52.58-.82,1.11-1.72,2.41-.74,26.45,19.89,13.07,83.48,16.63,87.16,2.92,3-14.85,13.64-27.3,12.66-17.07-1.35-19.14-19.77-19.26-23.34s.49-64.6.49-64.6A90.28,90.28,0,0,0,611.64,262.38Z" fill="#fff"/><path d="M714.87,325.49c-1.6.51-38.75,4.61-50-3.56-6.55-4.75-18.57-18.72-18.45-17.95.52,3.32-1.18,2.37.22,6.68,1.12,3.46,2.31,6.78,3,9.28,1.81,6.41,11.6,33,5.15,42.74-4.11,6.16-8.34,6.32-11.8,4-5.93-3.95-4.47-26.62-10-47.65-4.29-16.26,1.57-27.23-2.45-40.59-3-10.1-3.14-14.16-3.14-14.16,27,5.71,37.21,40.9,44.2,45.29,7.71,4.85,41.6.89,43.31,3.79C715.53,314.45,715.67,325.23,714.87,325.49Z" fill="#0267a4"/><path d="M619.87,310.93c.82,9.22-.31,22.88-1.23,30.55-1.65,13.82,4.87,20.25.59,26.77-5.16,7.87-14.71,9.34-22.64,5.94-4.25-1.81-2.74-18.2-2-31.64h0c.34-6.13.45-11.64-.1-14.9-1.1-6.61-1.51-9.5-2.67-24.5a97.51,97.51,0,0,1-.28-12.86c.05-1,.14-2,.25-3a30,30,0,0,1,.67-3.71,15.75,15.75,0,0,1,1.43-3.79c.12-.21.24-.42.38-.62a54.5,54.5,0,0,1,17.37-16.8c.46,1.82,1.34,5.72,2.39,10.84q.27,1.29.54,2.7c.21,1.06.43,2.17.65,3.31.15.82.31,1.65.47,2.5C617.33,290.66,619,301.27,619.87,310.93Z" fill="#0267a4"/><path d="M687.46,344.48c4.29,0,3.86-12.56,3.86-12.56s-37.94-4.45-44.22-7.61-3.28-3.62-33.23-42.33h0l-.53-.69s-.07-.11-.22-.31a18.81,18.81,0,0,0-1.45-1.72,23.51,23.51,0,0,0-3.48-3.06l-.31-.22a22.73,22.73,0,0,0-2.25-1.37c-.58-.31-1.19-.6-1.84-.87-6.32-2.66-9.89,10.89-7.51,15.3a28.81,28.81,0,0,0,2.24,3.05c.62.76,1.33,1.63,2.14,2.6l.68.8c.79.95,1.66,2,2.58,3l1.3,1.5.9,1c12.17,14,31.45,35.15,33.8,36.87C643.27,340.4,685.28,344.46,687.46,344.48Z" fill="#0267a4"/><path d="M621.23,234.33c2.74,3,10.95,6.43,8.77,8.13s5.8,6.35,3.55,8.24c-5.46,4.58-14.62,6.09-17.42,4s-8.23-10-8.23-10Z" fill="#efaea6"/><path d="M617.84,242c1.93-1.18,2.3-.81,3.08-2.38s-2.68-1.6-.66-3.79,4.43-4.32,2.64-7.15c-2.59-4.1-5.52-.85-7.27,1.24-1.12,1.34-3.71-1.32-6.3.91-2,1.76-.84,2.8-2.58,4.45-1.06,1-4.71.86-5.43,3.62-1.34,5.12,3.8,6.08,3.15,10.93-.76,5.66,11.81,6.6,12,5.12.26-1.74-3.72-3.86-3.3-5.42.63-2.35,1.82-1.2,4-1,2.36.22,4.93-1.69,1.41-2.9S616.1,243,617.84,242Z" fill="#1f1f39"/><path d="M621.74,269.72c-.08,0-.2.18-.37.55-.79,1.75-2.56,7.26-5.68,11.46a16.47,16.47,0,0,1-2.82,3,16.11,16.11,0,0,1-5,2.82h0l-.37.11-.11,0c-3.08.89-9.4,1.8-15.84,2.58.05-1,.14-2,.25-3l-3.24.26-1.75.15c.45-1.38.89-2.66,1.3-3.83l1.72-.1,2.64-.19c5.73-.43,11.34-1.11,12.95-1.69a21.25,21.25,0,0,0,3.64-1.7c.28-.16.56-.34.83-.51.54-.34,1-.7,1.56-1.07a30.53,30.53,0,0,0,3.13-2.7,43.08,43.08,0,0,0,4.78-5.66c1-1.37.77-3,2.24-3.45C623.55,266.26,622.46,270,621.74,269.72Z" fill="#1f1f39" opacity="0.18"/><path d="M624.1,270.06a2.58,2.58,0,0,1-2.5.06c-.05,0-.13,0-.23.15-.75.86-2.81,5.13-6.15,9a21,21,0,0,1-6.16,5,13.85,13.85,0,0,1-2.33.94c-3.86,1.15-9.41,1.66-14.94,2.11l-3.24.26-1.75.15a55.36,55.36,0,0,0-11.26,1.78c-7,2.33-14.08,14.52-24.77,18.63-6.56,2.52-32.63,6.9-35.82,6.44s-5.91-2.67-6.4-4.27,1.79-3.12,5.76-4.81,20.51.6,34-5,14.38-15,23.61-19.39c5.09-2.44,12.58-2,19.35-1.51l2.6.19c4.44.31,8.35.48,10.76-.37a22.42,22.42,0,0,0,5.28-2.75,30.1,30.1,0,0,0,4.1-3.46,43.27,43.27,0,0,0,4.56-5.44c1-1.36,1-2,2.42-2.4a2.54,2.54,0,0,1,3.26,1.71C624.55,268,624.87,269.67,624.1,270.06Z" fill="#f4ad00"/><path d="M624.25,235.65c3.76,1.52,4.19,2.82,3.83,4s-7,5.36-8.53,5.52c-2.67.29-3.72,2.67-4.23,3.9s-5.17,7.65-5.61,7.27c-1-.87.64-3.56,1.29-5.38a54,54,0,0,1,7.58-11.31C621,237.22,623.31,235.27,624.25,235.65Z" fill="#d3190b"/><path d="M610.14,254.69c-5.57.79-5.9.09-4.59,1.48s4.09.17,4.55-.75S610.14,254.69,610.14,254.69Z" fill="#d3190b"/><path d="M609.6,255.4c-1.57,2.56-.84,1.68-.15,3.79s1.57-.59,1.22-1.93S610.5,253.92,609.6,255.4Z" fill="#d3190b"/><path d="M577.41,506.72a.93.93,0,0,0,.67-.58c4.17-11,11.42-18.52,22.14-22.9a.94.94,0,1,0-.71-1.74c-11.24,4.58-18.83,12.42-23.19,24a.93.93,0,0,0,.55,1.21A.92.92,0,0,0,577.41,506.72Z" fill="#603a3e"/><path d="M578.46,489.9a.93.93,0,0,0,.54-.36,43.64,43.64,0,0,1,11.74-11.34,46.22,46.22,0,0,1,15.13-5.94h0a.94.94,0,0,0-.42-1.84c-12.5,2.8-20.6,8-28,18a.93.93,0,0,0,.19,1.31A1,1,0,0,0,578.46,489.9Z" fill="#603a3e"/><path d="M733.25,543.67a.62.62,0,0,0-.16.57,25.31,25.31,0,0,1-4,20.85.63.63,0,0,0,1,.71A26.49,26.49,0,0,0,734.31,544a.63.63,0,0,0-.75-.48A.69.69,0,0,0,733.25,543.67Z" fill="#603a3e"/><path d="M738.82,553.42a.61.61,0,0,0-.17.39,29.06,29.06,0,0,1-2.38,10.61,30.87,30.87,0,0,1-6.25,8.85h0a.64.64,0,0,0,0,.88.63.63,0,0,0,.89,0c5.93-6.13,8.53-12,9-20.26a.62.62,0,0,0-1.08-.46Z" fill="#603a3e"/><path d="M377.08,56.32a24,24,0,0,1,7,4L379,66.44a15.83,15.83,0,0,0-10.33-3.77,11.79,11.79,0,0,0-6.67,2,13.16,13.16,0,0,0-4.67,6.17,28.31,28.31,0,0,0-1.74,10.74q0,9.57,3.57,14.16a11.48,11.48,0,0,0,9.58,4.6,14.81,14.81,0,0,0,6.16-1.18,24.13,24.13,0,0,0,5.17-3.29l4.77,6q-6.51,6.42-16.54,6.42a23.15,23.15,0,0,1-12-3.08,20.83,20.83,0,0,1-8.18-9.12,32.77,32.77,0,0,1-3-14.53,31.28,31.28,0,0,1,3.05-14.31,21.69,21.69,0,0,1,8.31-9.12A22.7,22.7,0,0,1,368.28,55,26.28,26.28,0,0,1,377.08,56.32Z" fill="#838bc5" stroke="#534741" stroke-miterlimit="10"/><path d="M418.19,69.49a16,16,0,0,1,6.23,7.16,26,26,0,0,1,2.12,10.87,26.17,26.17,0,0,1-2.14,11,16.05,16.05,0,0,1-6.26,7.2,18.42,18.42,0,0,1-9.84,2.53,18.72,18.72,0,0,1-9.86-2.47,15.79,15.79,0,0,1-6.24-7.13,26.25,26.25,0,0,1-2.14-11.07,25.45,25.45,0,0,1,2.16-10.8,16.46,16.46,0,0,1,6.28-7.26A18.13,18.13,0,0,1,408.34,67,18.34,18.34,0,0,1,418.19,69.49Zm-16,8.05q-2,3.22-2,10.06t2,10.11a7.36,7.36,0,0,0,12.18,0q2-3.24,2-10.18,0-6.75-2-10a7.34,7.34,0,0,0-12.18,0Z" fill="#838bc5" stroke="#534741" stroke-miterlimit="10"/><path d="M470.14,69.54c1.36,1.72,2,4.6,2,8.64v29h-8.49V79.4a19.43,19.43,0,0,0-.16-2.9,2.59,2.59,0,0,0-.67-1.49,2.07,2.07,0,0,0-1.49-.48c-1.8,0-3.47,1.09-5,3.28v29.36H449V79.4a19.17,19.17,0,0,0-.17-2.9,2.59,2.59,0,0,0-.66-1.49,2.1,2.1,0,0,0-1.5-.48,4.83,4.83,0,0,0-2.55.75,9.31,9.31,0,0,0-2.47,2.53v29.36H433V68.06h7.27l.63,4.07a15.92,15.92,0,0,1,3.78-3.88A7.82,7.82,0,0,1,449.21,67a6.79,6.79,0,0,1,4,1.16,6.38,6.38,0,0,1,2.37,3.64,15.18,15.18,0,0,1,3.93-3.55A9,9,0,0,1,464.2,67,7.09,7.09,0,0,1,470.14,69.54Z" fill="#838bc5" stroke="#534741" stroke-miterlimit="10"/><path d="M482.37,68.06h20.82v32.2h10.3v6.91H482v-6.91h11.44V75H482.37ZM500,49.1a5.61,5.61,0,0,1,2.15,2.09,6.06,6.06,0,0,1,0,5.91A5.71,5.71,0,0,1,500,59.2a6.19,6.19,0,0,1-3.13.78,6.3,6.3,0,0,1-3.16-.78,5.66,5.66,0,0,1-2.16-2.1,6,6,0,0,1,0-5.91,5.57,5.57,0,0,1,2.16-2.09,6.5,6.5,0,0,1,3.16-.75A6.38,6.38,0,0,1,500,49.1Z" fill="#838bc5" stroke="#534741" stroke-miterlimit="10"/><path d="M525,107.17V68.06h8.49l.71,4.84a17,17,0,0,1,5.64-4.45A15.65,15.65,0,0,1,546.61,67c3.5,0,6.17,1,8,3s2.79,4.88,2.79,8.57v28.62h-9.75V82.35a22.89,22.89,0,0,0-.39-4.81,4.19,4.19,0,0,0-1.4-2.52,4.82,4.82,0,0,0-3-.79q-4.29,0-8.16,5.21v27.73Z" fill="#838bc5" stroke="#534741" stroke-miterlimit="10"/><path d="M605.47,70.17a21.53,21.53,0,0,1-4.88,1.09,57.35,57.35,0,0,1-6.46.31,13.23,13.23,0,0,1,5.5,4,9.64,9.64,0,0,1,1.81,6,12.29,12.29,0,0,1-1.94,6.81A12.83,12.83,0,0,1,594,93a19.75,19.75,0,0,1-8.43,1.68,20.6,20.6,0,0,1-5-.55,2.9,2.9,0,0,0-1.12,1.18,3.22,3.22,0,0,0-.43,1.59,2.31,2.31,0,0,0,1,2,6.51,6.51,0,0,0,3.64.72h6.64a18.72,18.72,0,0,1,7.55,1.44,12.17,12.17,0,0,1,5.14,4,9.51,9.51,0,0,1,1.82,5.67,10.44,10.44,0,0,1-2.3,6.78,14.32,14.32,0,0,1-6.82,4.3,35.76,35.76,0,0,1-11,1.47,33.56,33.56,0,0,1-10.87-1.4,10.16,10.16,0,0,1-5.6-4.08,12.88,12.88,0,0,1-1.62-6.77h8.68a5.6,5.6,0,0,0,.79,3.19,4.9,4.9,0,0,0,2.86,1.74,23.7,23.7,0,0,0,6,.57c3.71,0,6.35-.44,7.9-1.31a4.16,4.16,0,0,0,2.32-3.82,3.72,3.72,0,0,0-1.79-3.29,9,9,0,0,0-5-1.18H581.8a16.75,16.75,0,0,1-6.33-1,8.11,8.11,0,0,1-3.75-2.77,6.52,6.52,0,0,1-1.22-3.84,7.61,7.61,0,0,1,1.12-4,9.78,9.78,0,0,1,3.24-3.22,12.77,12.77,0,0,1-5.21-4.56A12.33,12.33,0,0,1,568,81a12.83,12.83,0,0,1,2.14-7.35,13.88,13.88,0,0,1,6-4.91A20.87,20.87,0,0,1,584.86,67a41.63,41.63,0,0,0,7.48-.51,27.35,27.35,0,0,0,5.5-1.48A57.1,57.1,0,0,0,603,62.56Zm-25.68,5.32a7.58,7.58,0,0,0-1.87,5.42,7.78,7.78,0,0,0,1.88,5.52,6.87,6.87,0,0,0,5.28,2,6.48,6.48,0,0,0,5.1-2A8.23,8.23,0,0,0,592,80.8q0-7.3-6.9-7.31A6.84,6.84,0,0,0,579.79,75.49Z" fill="#838bc5" stroke="#534741" stroke-miterlimit="10"/><path d="M690.72,100.72a15.73,15.73,0,0,1-6.92,5.56,26.45,26.45,0,0,1-10.73,2q-12.15,0-19.39-7L659,95.28a20.13,20.13,0,0,0,13.92,5.28,11.71,11.71,0,0,0,7-1.94,6.31,6.31,0,0,0,2.72-5.45,6.62,6.62,0,0,0-.89-3.56,7.59,7.59,0,0,0-3-2.55,35.41,35.41,0,0,0-6-2.31,45.63,45.63,0,0,1-9.39-3.85A15,15,0,0,1,657.91,76a12.63,12.63,0,0,1-1.75-6.76,12.23,12.23,0,0,1,2.4-7.51,15.26,15.26,0,0,1,6.57-5A24.06,24.06,0,0,1,674.47,55a28.32,28.32,0,0,1,9.88,1.61,23.33,23.33,0,0,1,7.73,4.71L687,67a17.8,17.8,0,0,0-5.62-3.3,18.14,18.14,0,0,0-6.24-1.09,11.25,11.25,0,0,0-6.2,1.53,4.92,4.92,0,0,0-2.36,4.37,4.82,4.82,0,0,0,1,3.11A9.28,9.28,0,0,0,671,74a62.22,62.22,0,0,0,6.91,2.48,39.08,39.08,0,0,1,8.23,3.43,14.26,14.26,0,0,1,5.13,5,14.64,14.64,0,0,1,1.85,7.65A14.33,14.33,0,0,1,690.72,100.72Z" fill="#838bc5" stroke="#534741" stroke-miterlimit="10"/><path d="M728.34,69.49a16,16,0,0,1,6.22,7.16,25.8,25.8,0,0,1,2.13,10.87,26.17,26.17,0,0,1-2.15,11,16,16,0,0,1-6.25,7.2,18.42,18.42,0,0,1-9.84,2.53,18.72,18.72,0,0,1-9.86-2.47,15.79,15.79,0,0,1-6.24-7.13,26.25,26.25,0,0,1-2.14-11.07,25.45,25.45,0,0,1,2.16-10.8,16.5,16.5,0,0,1,6.27-7.26A18.18,18.18,0,0,1,718.48,67,18.38,18.38,0,0,1,728.34,69.49Zm-16,8.05q-2,3.22-2,10.06t2,10.11a7.37,7.37,0,0,0,12.19,0q2-3.24,2-10.18,0-6.75-2-10a6.64,6.64,0,0,0-6.06-3.24A6.71,6.71,0,0,0,712.35,77.54Z" fill="#838bc5" stroke="#534741" stroke-miterlimit="10"/><path d="M772.65,69.49a16,16,0,0,1,6.22,7.16A25.81,25.81,0,0,1,781,87.52a26.17,26.17,0,0,1-2.14,11,16,16,0,0,1-6.26,7.2,18.38,18.38,0,0,1-9.84,2.53,18.75,18.75,0,0,1-9.86-2.47,15.71,15.71,0,0,1-6.23-7.13,26.24,26.24,0,0,1-2.15-11.07,25.45,25.45,0,0,1,2.16-10.8A16.53,16.53,0,0,1,753,69.54,18.13,18.13,0,0,1,762.79,67,18.38,18.38,0,0,1,772.65,69.49Zm-16,8.05q-2,3.22-2,10.06t2,10.11a7.37,7.37,0,0,0,12.19,0q2-3.24,2-10.18c0-4.5-.67-7.83-2-10a7.35,7.35,0,0,0-12.19,0Z" fill="#838bc5" stroke="#534741" stroke-miterlimit="10"/><path d="M790.85,107.17V68.06h8.49l.7,4.84a17.15,17.15,0,0,1,5.65-4.45A15.65,15.65,0,0,1,812.45,67c3.5,0,6.17,1,8,3s2.79,4.88,2.79,8.57v28.62h-9.75V82.35a22.89,22.89,0,0,0-.39-4.81,4.19,4.19,0,0,0-1.4-2.52,4.82,4.82,0,0,0-3-.79q-4.29,0-8.16,5.21v27.73Z" fill="#838bc5" stroke="#534741" stroke-miterlimit="10"/><path d="M844.74,96.85a7.64,7.64,0,0,1,2.77-2.79,7.38,7.38,0,0,1,3.82-1,7.47,7.47,0,0,1,3.86,1A7.64,7.64,0,0,1,858,96.85a7.65,7.65,0,0,1,0,7.6,7.64,7.64,0,0,1-2.77,2.79,7.46,7.46,0,0,1-3.86,1,7.37,7.37,0,0,1-3.82-1,7.64,7.64,0,0,1-2.77-2.79,7.59,7.59,0,0,1,0-7.6Z" fill="#838bc5" stroke="#534741" stroke-miterlimit="10"/><path d="M889.05,96.85a7.61,7.61,0,0,1,2.76-2.79,7.63,7.63,0,0,1,7.69,0,7.61,7.61,0,0,1,2.76,2.79,7.59,7.59,0,0,1,0,7.6,7.61,7.61,0,0,1-2.76,2.79,7.69,7.69,0,0,1-7.69,0,7.61,7.61,0,0,1-2.76-2.79,7.59,7.59,0,0,1,0-7.6Z" fill="#838bc5" stroke="#534741" stroke-miterlimit="10"/><path d="M933.35,96.85a7.64,7.64,0,0,1,2.77-2.79,7.61,7.61,0,0,1,7.68,0,7.64,7.64,0,0,1,2.77,2.79,7.59,7.59,0,0,1,0,7.6,7.64,7.64,0,0,1-2.77,2.79,7.67,7.67,0,0,1-7.68,0,7.64,7.64,0,0,1-2.77-2.79,7.65,7.65,0,0,1,0-7.6Z" fill="#838bc5" stroke="#534741" stroke-miterlimit="10"/><path d="M26.71,773.43a1.22,1.22,0,0,0,.68-1.12,1.34,1.34,0,0,0-.23-.83,2.2,2.2,0,0,0-.89-.61,14.26,14.26,0,0,0-2-.64,10.82,10.82,0,0,1-2.26-.82,3.81,3.81,0,0,1-1.42-1.23,3.58,3.58,0,0,1,.14-3.87A4.11,4.11,0,0,1,22.61,763a7.76,7.76,0,0,1,2.9-.49A8.38,8.38,0,0,1,30.59,764l-1.32,2a6.76,6.76,0,0,0-3.68-1.14c-1.47,0-2.2.42-2.2,1.26a1,1,0,0,0,.27.71,2.66,2.66,0,0,0,.92.55c.44.17,1.12.38,2,.64a11.92,11.92,0,0,1,2.29.86,3.5,3.5,0,0,1,1.39,1.24,3.55,3.55,0,0,1,.5,2,3.46,3.46,0,0,1-.8,2.3,4.86,4.86,0,0,1-2.15,1.4,9,9,0,0,1-3,.46,9.4,9.4,0,0,1-3.16-.5,7.46,7.46,0,0,1-2.4-1.39l1.69-1.9a6.39,6.39,0,0,0,1.78,1,5.81,5.81,0,0,0,2.08.37A3.6,3.6,0,0,0,26.71,773.43Z"/><path d="M45.92,775.14a6.69,6.69,0,0,1-1.81.8,8.21,8.21,0,0,1-2.19.29,5.73,5.73,0,0,1-2.64-.55,3.67,3.67,0,0,1-1.62-1.57,5.07,5.07,0,0,1-.54-2.41v-6.57H34.29v-2.3h2.83V760l3.25-.39v3.26h4.3l-.33,2.3h-4v6.56a1.93,1.93,0,0,0,.49,1.48,2.27,2.27,0,0,0,1.59.46A4.82,4.82,0,0,0,44.8,773Z"/><path d="M59.84,772.43a2.19,2.19,0,0,0,.21,1.08,1.38,1.38,0,0,0,.72.52l-.7,2.18a4.39,4.39,0,0,1-1.8-.54,2.72,2.72,0,0,1-1.1-1.22,4.63,4.63,0,0,1-1.84,1.33,6.3,6.3,0,0,1-2.38.45,4.89,4.89,0,0,1-2.29-.51,3.68,3.68,0,0,1-1.52-1.43,4.26,4.26,0,0,1-.53-2.13,3.78,3.78,0,0,1,.73-2.35,4.42,4.42,0,0,1,2.13-1.48,10,10,0,0,1,3.4-.5h1.82v-.71a2,2,0,0,0-.7-1.66,3.36,3.36,0,0,0-2.07-.54,8.76,8.76,0,0,0-1.61.18,13,13,0,0,0-1.9.5l-.78-2.23a16,16,0,0,1,2.46-.68,13.4,13.4,0,0,1,2.34-.23,6.1,6.1,0,0,1,4,1.15,4.09,4.09,0,0,1,1.36,3.31Zm-4.33,1a3.15,3.15,0,0,0,1.18-1.17v-2.53H55.41a4.67,4.67,0,0,0-2.6.56A1.85,1.85,0,0,0,52,772a1.88,1.88,0,0,0,.51,1.42,2.1,2.1,0,0,0,1.5.49A3.05,3.05,0,0,0,55.51,773.46Z"/><path d="M72.32,773.33a7.45,7.45,0,0,0,1.52-.84l1.48,2.08a6.75,6.75,0,0,1-2.12,1.21,7.39,7.39,0,0,1-2.57.45,6.84,6.84,0,0,1-3.49-.85A5.62,5.62,0,0,1,64.89,773a8.58,8.58,0,0,1,0-7.17,5.94,5.94,0,0,1,2.28-2.48,6.74,6.74,0,0,1,3.5-.89,7.76,7.76,0,0,1,2.53.39,6.69,6.69,0,0,1,2.1,1.2l-1.44,2a5.42,5.42,0,0,0-3.09-1,2.89,2.89,0,0,0-2.38,1.08,5.28,5.28,0,0,0-.87,3.34,4.84,4.84,0,0,0,.87,3.2,3,3,0,0,0,2.37,1A4.27,4.27,0,0,0,72.32,773.33Z"/><path d="M79,757.62l3.25-.34v18.58H79Zm8.24,5.21h3.58L86,768.64l5.31,7.22H87.48l-5-7.14Z"/><path d="M97.08,764a2.35,2.35,0,0,1,2-1.19,2.34,2.34,0,0,1,1.2.32,2.27,2.27,0,0,1,.87.87,2.4,2.4,0,0,1,0,2.36,2.27,2.27,0,0,1-.87.87,2.34,2.34,0,0,1-1.2.32,2.4,2.4,0,0,1-1.2-.32,2.37,2.37,0,0,1-.85-3.23Zm0,8.64a2.44,2.44,0,0,1,.86-.86,2.4,2.4,0,0,1,1.2-.32,2.34,2.34,0,0,1,1.2.32,2.39,2.39,0,0,1,.87.86,2.42,2.42,0,0,1,0,2.37,2.27,2.27,0,0,1-.87.87,2.34,2.34,0,0,1-1.2.32,2.4,2.4,0,0,1-1.2-.32,2.4,2.4,0,0,1-.86-3.24Z"/><path d="M170,762.87c0-3.69-4.62-7.18-11.7-9.35,1.64-7.22.91-13-2.29-14.8a5,5,0,0,0-2.54-.64v2.53a2.65,2.65,0,0,1,1.29.3c1.54.89,2.21,4.26,1.69,8.59a33.49,33.49,0,0,1-.58,3.34,53.62,53.62,0,0,0-7.2-1.24,55.43,55.43,0,0,0-4.73-5.67c3.7-3.44,7.18-5.33,9.54-5.33v-2.53h0c-3.12,0-7.21,2.23-11.34,6.09-4.13-3.84-8.22-6-11.34-6v2.53c2.35,0,5.83,1.87,9.53,5.29a54.84,54.84,0,0,0-4.68,5.66,51.82,51.82,0,0,0-7.22,1.25,33.23,33.23,0,0,1-.59-3.29c-.54-4.34.12-7.71,1.66-8.6a2.45,2.45,0,0,1,1.3-.3v-2.53h0a5,5,0,0,0-2.56.63c-3.19,1.84-3.91,7.58-2.26,14.77-7.06,2.18-11.66,5.66-11.66,9.34s4.62,7.19,11.7,9.35c-1.63,7.22-.91,13,2.29,14.8a4.94,4.94,0,0,0,2.56.64c3.12,0,7.21-2.22,11.34-6.08,4.13,3.83,8.21,6,11.34,6a5.06,5.06,0,0,0,2.56-.63c3.19-1.84,3.91-7.57,2.26-14.77C165.42,770.05,170,766.55,170,762.87Zm-14.77-7.57c-.42,1.47-1,3-1.54,4.48-.46-.9-.95-1.81-1.48-2.72s-1.08-1.79-1.64-2.66C152.19,754.64,153.75,754.94,155.24,755.3ZM150,767.39c-.89,1.53-1.8,3-2.74,4.33-1.69.15-3.4.23-5.13.23s-3.43-.08-5.11-.21c-.94-1.35-1.86-2.8-2.74-4.32s-1.65-3-2.36-4.51c.7-1.52,1.49-3,2.35-4.53s1.79-3,2.73-4.34c1.69-.15,3.41-.23,5.13-.23s3.43.08,5.11.22q1.41,2,2.75,4.31c.86,1.49,1.64,3,2.36,4.52C151.67,764.38,150.89,765.9,150,767.39Zm3.66-1.48a46.82,46.82,0,0,1,1.57,4.52c-1.49.36-3.05.67-4.68.91.56-.88,1.12-1.77,1.64-2.69S153.24,766.82,153.7,765.91ZM142.19,778a46.7,46.7,0,0,1-3.15-3.63c1,.05,2.06.08,3.12.08s2.12,0,3.16-.08A44.56,44.56,0,0,1,142.19,778Zm-8.44-6.68c-1.61-.24-3.17-.53-4.65-.9.42-1.46.94-3,1.53-4.48.46.91,1,1.82,1.49,2.72S133.19,770.48,133.75,771.34Zm8.39-23.62a46.7,46.7,0,0,1,3.15,3.63c-1,0-2.06-.08-3.12-.08s-2.12,0-3.15.08A42.63,42.63,0,0,1,142.14,747.72Zm-8.4,6.68c-.56.88-1.11,1.78-1.64,2.69s-1,1.82-1.47,2.73c-.61-1.52-1.14-3-1.57-4.52C130.55,755,132.12,754.64,133.74,754.4Zm-10.27,14.21c-4-1.71-6.62-4-6.62-5.74s2.6-4,6.62-5.74c1-.42,2-.8,3.14-1.15a55.36,55.36,0,0,0,2.55,6.91,54.14,54.14,0,0,0-2.51,6.88A32.6,32.6,0,0,1,123.47,768.61Zm6.1,16.22c-1.54-.88-2.21-4.25-1.69-8.59.13-1.06.33-2.19.58-3.33a55.45,55.45,0,0,0,7.21,1.23,55.33,55.33,0,0,0,4.72,5.68c-3.7,3.44-7.17,5.32-9.53,5.32A2.64,2.64,0,0,1,129.57,784.83Zm26.93-8.64c.53,4.33-.13,7.7-1.66,8.6a2.57,2.57,0,0,1-1.31.29c-2.35,0-5.83-1.87-9.53-5.29a52.63,52.63,0,0,0,4.69-5.66,52.35,52.35,0,0,0,7.22-1.25A33.59,33.59,0,0,1,156.5,776.19Zm4.37-7.58c-1,.42-2.05.8-3.15,1.15a55.94,55.94,0,0,0-2.55-6.91,55.25,55.25,0,0,0,2.52-6.88c1.12.35,2.19.74,3.19,1.16,4,1.71,6.61,4,6.61,5.74S164.88,766.91,160.87,768.61Z" fill="#61dafb"/><circle cx="142.16" cy="762.87" r="5.19" fill="#61dafb"/><path d="M234.54,768.07a14.39,14.39,0,0,0-6.37,1.48,13.07,13.07,0,0,1-1.43-3.3,8.92,8.92,0,0,1-.13-2.77,21.87,21.87,0,0,1,.84-3c0-.12-.15-.73-1.57-.74s-2.64.27-2.77.64a14.35,14.35,0,0,0-.59,2.11c-.25,1.29-2.84,5.87-4.31,8.27a8.31,8.31,0,0,1-1-2.42,8.92,8.92,0,0,1-.13-2.77,21.87,21.87,0,0,1,.84-3c0-.13-.15-.73-1.56-.74s-2.64.27-2.78.64-.29,1.25-.59,2.11-3.73,8.49-4.62,10.48c-.45,1-.85,1.83-1.14,2.38s0,0,0,.1l-.39.73h0c-.19.34-.4.67-.49.67a4.54,4.54,0,0,1,0-2.18c.51-2.65,1.75-6.79,1.74-6.94s.23-.8-.8-1.17a1.25,1.25,0,0,0-1.44.25c-.09,0-.16.22-.16.22s1.12-4.66-2.13-4.66c-2,0-4.83,2.21-6.22,4.23l-4.73,2.58c-.76.42-1.54.86-2.28,1.25l-.15-.16c-3.94-4.19-11.21-7.16-10.9-12.8.11-2.05.82-7.45,14-14,10.76-5.36,19.38-3.89,20.88-.62,2.13,4.67-4.6,13.36-15.79,14.61-4.26.48-6.5-1.17-7.07-1.78s-.67-.68-.89-.55-.14.77,0,1.11a6.64,6.64,0,0,0,4,3.17c2.05.68,7.05,1.05,13.1-1.29,6.78-2.62,12.07-9.91,10.51-16s-11.86-8.23-21.58-4.78c-5.78,2.06-12,5.28-16.56,9.5-5.36,5-6.21,9.37-5.86,11.19,1.26,6.47,10.18,10.69,13.75,13.81l-.49.28c-1.79.87-8.6,4.43-10.3,8.2-1.92,4.26.3,7.33,1.79,7.74,4.59,1.28,9.29-1,11.83-4.8s2.23-8.68,1.06-10.93l0-.08,1.4-.82c.91-.54,1.8-1,2.59-1.46a17.28,17.28,0,0,0-.93,4.67c-.19,2.42.8,5.56,2.11,6.79a2.29,2.29,0,0,0,1.69.55c1.51,0,2.2-1.25,2.95-2.74.94-1.83,1.76-4,1.76-4s-1,5.73,1.79,5.73c1,0,2.06-1.33,2.53-2v0l.08-.14.17-.26v0c.41-.72,1.33-2.35,2.7-5.06,1.78-3.49,3.48-7.86,3.48-7.86a26,26,0,0,0,.68,2.83,26.64,26.64,0,0,0,1.47,3.3l-.66.91h0c-.33.44-.7.91-1.09,1.37a40,40,0,0,0-3.29,4.14,1.12,1.12,0,0,0,.3,1.51,2.74,2.74,0,0,0,1.73.28,7.72,7.72,0,0,0,2.58-.59,9.08,9.08,0,0,0,2.23-1.17A5,5,0,0,0,220,776a8.74,8.74,0,0,0-.81-3.09c.12-.18.25-.36.37-.55a58.17,58.17,0,0,0,3.85-6.66,27.07,27.07,0,0,0,.67,2.83,20.63,20.63,0,0,0,1.25,2.83,12.26,12.26,0,0,0-3.75,4.85c-.81,2.34-.18,3.4,1,3.64a3.59,3.59,0,0,0,1.88-.38,8.42,8.42,0,0,0,2.38-1.22c1.38-1,2.69-2.44,2.63-4.35a8.52,8.52,0,0,0-.6-2.57,13.41,13.41,0,0,1,6.82-.78c6.12.71,7.33,4.53,7.1,6.13a4.18,4.18,0,0,1-1.94,2.75c-.43.26-.57.36-.52.55s.24.27.61.22a4.78,4.78,0,0,0,3.33-4.25c.17-3.78-3.42-7.9-9.79-7.86ZM187.37,784c-2,2.21-4.87,3-6.08,2.34s-.8-4,1.69-6.37a32.24,32.24,0,0,1,4.77-3.56l1.25-.75.14-.09.32-.19a8.77,8.77,0,0,1-2.09,8.62Zm14.77-10.05c-.7,1.72-2.18,6.13-3.07,5.89s-1.24-3.55-.16-6.85a15.25,15.25,0,0,1,2.41-4.41c1.11-1.24,2.32-1.65,2.63-1.14C204.3,768.07,202.58,772.85,202.14,773.92Zm12.2,5.83c-.31.15-.58.26-.7.18s.12-.26.12-.26,1.53-1.64,2.13-2.39c.34-.44.76-.95,1.2-1.53v.17c0,2-1.9,3.29-2.75,3.83Zm9.4-2.14c-.22-.17-.19-.68.55-2.27a8.64,8.64,0,0,1,2.09-2.7,3.27,3.27,0,0,1,.2,1.19A3.87,3.87,0,0,1,223.74,777.61Z" fill="#cf649a"/><path d="M255.74,786.48a7.63,7.63,0,0,0,7.63,7.63h43.9a7.64,7.64,0,0,0,7.63-7.63v-43.9a7.64,7.64,0,0,0-7.63-7.63h-43.9a7.63,7.63,0,0,0-7.63,7.63v43.9Z" fill="#563d7c"/><path d="M280.27,761.12v-8.38h7.37a11.3,11.3,0,0,1,2,.18,4.94,4.94,0,0,1,1.73.62,3.31,3.31,0,0,1,1.2,1.26,4.15,4.15,0,0,1,.45,2.05,3.81,3.81,0,0,1-1.35,3.27,5.74,5.74,0,0,1-3.46,1Zm-7.88-14.5v35.82h17.36a18.33,18.33,0,0,0,4.69-.6,12.52,12.52,0,0,0,4.07-1.86,9.12,9.12,0,0,0,2.83-3.23,11,11,0,0,0-.58-10.44,8.59,8.59,0,0,0-4.94-3.34,8.79,8.79,0,0,0,3.64-3,7.81,7.81,0,0,0,1.23-4.51,9.6,9.6,0,0,0-.83-4.21,6.92,6.92,0,0,0-2.33-2.74,10.23,10.23,0,0,0-3.61-1.48,22.43,22.43,0,0,0-4.67-.45Zm7.88,29.7v-9.83h8.58a6.6,6.6,0,0,1,4.11,1.18,4.6,4.6,0,0,1,1.56,3.93,4.89,4.89,0,0,1-.48,2.31,3.77,3.77,0,0,1-1.28,1.43,5.37,5.37,0,0,1-1.85.75,10.62,10.62,0,0,1-2.21.23Z" fill="#fff"/></svg>