<svg id="a87ac7c3-dcb3-4768-a518-f7f09cce08c0" data-name="b1bcfaf2-0160-4b03-9cba-f70fc168f0ab" xmlns="http://www.w3.org/2000/svg" width="375.64" height="813.38" viewBox="0 0 375.64 813.38"><rect x="-0.25" y="174.89" width="375.64" height="452.11" fill="#eddcc3"/><rect y="235.88" width="375.64" height="297.24" fill="#eddcc3"/><g opacity="0.16"><polyline points="36.23 278.49 36.23 287.74 36.23 320.78 36.23 353.82 36.23 386.85 36.23 419.89 36.23 452.93 36.23 485.97 36.23 519 36.23 529.43" fill="none" stroke="#231f20" stroke-miterlimit="10" stroke-width="4"/><polyline points="69.27 529.81 69.27 529.43 69.27 519 69.27 485.97 69.27 452.93 69.27 419.89 69.27 386.85 69.27 353.82 69.27 320.78 69.27 287.74 69.27 278.49" fill="none" stroke="#231f20" stroke-miterlimit="10" stroke-width="4"/><polyline points="102.31 529.81 102.31 529.43 102.31 519 102.31 485.97 102.31 452.93 102.31 419.89 102.31 386.85 102.31 353.82 102.31 320.78 102.31 287.74 102.31 278.49" fill="none" stroke="#231f20" stroke-miterlimit="10" stroke-width="4"/><polyline points="135.35 529.81 135.35 529.43 135.35 519 135.35 485.97 135.35 452.93 135.35 419.89 135.35 386.85 135.35 353.82 135.35 320.78 135.35 287.74 135.35 278.49" fill="none" stroke="#231f20" stroke-miterlimit="10" stroke-width="4"/><polyline points="168.38 529.81 168.38 529.43 168.38 519 168.38 485.97 168.38 452.93 168.38 419.89 168.38 386.85 168.38 353.82 168.38 320.78 168.38 287.74 168.38 278.49" fill="none" stroke="#231f20" stroke-miterlimit="10" stroke-width="4"/><polyline points="201.43 529.81 201.43 529.43 201.43 519 201.43 485.97 201.43 452.93 201.43 419.89 201.43 386.85 201.43 353.82 201.43 320.78 201.43 287.74 201.43 278.49" fill="none" stroke="#231f20" stroke-miterlimit="10" stroke-width="4"/><polyline points="234.47 529.81 234.47 529.43 234.47 519 234.47 485.97 234.47 452.93 234.47 419.89 234.47 386.85 234.47 353.82 234.47 320.78 234.47 287.74 234.47 278.49" fill="none" stroke="#231f20" stroke-miterlimit="10" stroke-width="4"/><polyline points="267.5 529.81 267.5 529.43 267.5 519 267.5 485.97 267.5 452.93 267.5 419.89 267.5 386.85 267.5 353.82 267.5 320.78 267.5 287.74 267.5 278.49" fill="none" stroke="#231f20" stroke-miterlimit="10" stroke-width="4"/><polyline points="300.54 529.81 300.54 529.43 300.54 519 300.54 485.97 300.54 452.93 300.54 419.89 300.54 386.85 300.54 353.82 300.54 320.78 300.54 287.74 300.54 278.49" fill="none" stroke="#231f20" stroke-miterlimit="10" stroke-width="4"/><polyline points="333.58 529.81 333.58 529.43 333.58 519 333.58 485.97 333.58 452.93 333.58 419.89 333.58 386.85 333.58 353.82 333.58 320.78 333.58 287.74 333.58 278.49" fill="none" stroke="#231f20" stroke-miterlimit="10" stroke-width="4"/><polyline points="351.69 519 351.63 519 333.58 519 300.54 519 267.5 519 234.47 519 201.43 519 168.38 519 135.35 519 102.31 519 69.27 519 36.23 519 17.03 519" fill="none" stroke="#231f20" stroke-miterlimit="10" stroke-width="4"/><polyline points="351.69 485.97 351.63 485.97 333.58 485.97 300.54 485.97 267.5 485.97 234.47 485.97 201.43 485.97 168.38 485.97 135.35 485.97 102.31 485.97 69.27 485.97 36.23 485.97 17.03 485.97" fill="none" stroke="#231f20" stroke-miterlimit="10" stroke-width="4"/><polyline points="351.69 452.93 351.63 452.93 333.58 452.93 300.54 452.93 267.5 452.93 234.47 452.93 201.43 452.93 168.38 452.93 135.35 452.93 102.31 452.93 69.27 452.93 36.23 452.93 17.03 452.93" fill="none" stroke="#231f20" stroke-miterlimit="10" stroke-width="4"/><polyline points="351.69 419.89 351.63 419.89 333.58 419.89 300.54 419.89 267.5 419.89 234.47 419.89 201.43 419.89 168.38 419.89 135.35 419.89 102.31 419.89 69.27 419.89 36.23 419.89 17.03 419.89" fill="none" stroke="#231f20" stroke-miterlimit="10" stroke-width="4"/><polyline points="351.69 386.85 351.63 386.85 333.58 386.85 300.54 386.85 267.5 386.85 234.47 386.85 201.43 386.85 168.38 386.85 135.35 386.85 102.31 386.85 69.27 386.85 36.23 386.85 17.03 386.85" fill="none" stroke="#231f20" stroke-miterlimit="10" stroke-width="4"/><polyline points="351.69 353.82 351.63 353.82 333.58 353.82 300.54 353.82 267.5 353.82 234.47 353.82 201.43 353.82 168.38 353.82 135.35 353.82 102.31 353.82 69.27 353.82 36.23 353.82 17.03 353.82" fill="none" stroke="#231f20" stroke-miterlimit="10" stroke-width="4"/><polyline points="351.69 320.78 351.63 320.78 333.58 320.78 300.54 320.78 267.5 320.78 234.47 320.78 201.43 320.78 168.38 320.78 135.35 320.78 102.31 320.78 69.27 320.78 36.23 320.78 17.03 320.78" fill="none" stroke="#231f20" stroke-miterlimit="10" stroke-width="4"/><polyline points="351.69 287.74 351.63 287.74 333.58 287.74 300.54 287.74 267.5 287.74 234.47 287.74 201.43 287.74 168.38 287.74 135.35 287.74 102.31 287.74 69.27 287.74 36.23 287.74 17.03 287.74" fill="none" stroke="#231f20" stroke-miterlimit="10" stroke-width="4"/></g><path d="M27.86,416.34C69,441.79,181.11,492.21,201.64,484.91,245,469.5,328.71,393.25,328.71,393.25s-16.37-1.39-8.72-7,29.58-15,27.62-.94-7.21,32.6-8.48,22.86-5.36-7.34-5.36-7.34S240,482.49,202.66,491.2,41.08,441.47,27,434.34,27.86,416.34,27.86,416.34Z" fill="#419f81"/><path d="M222.73,354.11c0,2.28-1.46,5.92-.55,6.12s2.3-5.13,2.48-6.86-1.91-.67-1.92,0Z" fill="#3b3b4c"/><path d="M224.6,352.66l-1.06-.08-.8-.05a17.15,17.15,0,0,1,.64-3.77c.6-.88.82-6.29,1-7.32,0-.12.05-.18.07-.17C224.92,341.4,225.38,348.26,224.6,352.66Z" fill="#fff"/><path d="M220.82,352.12c.71,1.32,5,1.52,5.93,1.16s1.27-1.32.59-1a6.62,6.62,0,0,1-3.06.13c-.87-.18-2.44-.14-3-.81C221,351.28,220.35,351.23,220.82,352.12Z" fill="#1f1f39"/><path d="M224.39,341.43c.2,2.55-.25,9.53-.85,11.14l-.8-.06a17,17,0,0,1,.64-3.76C224,347.89,224.2,342.47,224.39,341.43Z" fill="#1f1f39" opacity="0.18" style="isolation:isolate"/><path d="M213.54,309.84c2,1,4.62,3.81,5.18,3.1s-3.54-4.22-5-5.11-1.41,1.4-.79,1.72Z" fill="#3b3b4c"/><path d="M213.05,307.57l-.51.89-.39.68a16.92,16.92,0,0,1-3.06-2.17c-.52-.88-5.21-3.4-6.05-4-.09-.07-.13-.11-.12-.13C203.23,302.5,209.49,305,213.05,307.57Z" fill="#fff"/><path d="M211,310.69c1.5-.06,3.49-3.8,3.55-4.75s-.64-1.69-.67-1a6.66,6.66,0,0,1-1.18,2.76c-.53.69-1.17,2.1-2,2.3C210.32,310.13,210,310.73,211,310.69Z" fill="#1f1f39"/><path d="M203,303c2.35.91,8.32,4.28,9.5,5.49l-.39.69a16.92,16.92,0,0,1-3.06-2.17C208.57,306.09,203.88,303.59,203,303Z" fill="#1f1f39" opacity="0.18" style="isolation:isolate"/><path d="M211.77,333.17c1.72-1.46,5.32-2.74,4.9-3.55s-5.29,1.6-6.68,2.58.73,1.85,1.26,1.4Z" fill="#3b3b4c"/><path d="M209.5,332.71l.62.83.48.63a17.15,17.15,0,0,1-3.2,1.95c-1,.12-5.19,3.44-6.08,4-.1.05-.16.08-.17.06C201,339.73,205.74,335,209.5,332.71Z" fill="#fff"/><path d="M211.53,335.87c.54-1.4-2.1-4.71-2.95-5.15s-1.8-.09-1.14.23a6.52,6.52,0,0,1,2.06,2.18c.44.76,1.47,1.9,1.33,2.74C210.77,336.23,211.18,336.78,211.53,335.87Z" fill="#1f1f39"/><path d="M201.32,340.1c1.77-1.8,7.23-6,8.8-6.55l.48.63a17.15,17.15,0,0,1-3.2,1.95C206.37,336.24,202.21,339.56,201.32,340.1Z" fill="#1f1f39" opacity="0.18" style="isolation:isolate"/><path d="M209.41,438.34c.61-2.34,1.41-8.41,1.41-8.41l-6.27-1.24-1.12,9.1,3.71,3.54Z" fill="#efaea6"/><path d="M210.06,437.42c.69,0,.29.55.33,1.59.09,2.38,8.33,4.12,9.54,4.58.62.24,1,3.78-2.22,3.1-2.76-.57-11.62-2.38-14.63-3a1.41,1.41,0,0,1-1.12-1.33c-.11-2.31.74-5.68,1.6-5.57C204.91,436.63,207.19,437.52,210.06,437.42Z" fill="#1f1f39"/><path d="M175.67,368.64c7.33-1.59,38.9,18.05,41.42,21.45,3.93,5.27-5.26,44.44-5.26,44.44s-10.05.94-10-.38,6.1-34.8,5.17-36.6-26.59-11.07-30.44-16.33S175.67,368.64,175.67,368.64Z" fill="#3b3b4c"/><path d="M175.67,368.64c7.33-1.59,38.9,18.05,41.42,21.45,3.93,5.27-5.26,44.44-5.26,44.44s-10.05.94-10-.38,6.1-34.8,5.17-36.6-26.59-11.07-30.44-16.33S175.67,368.64,175.67,368.64Z" fill="#1f1f39" opacity="0.4" style="isolation:isolate"/><path d="M205.69,444.62l7,1.65a1.16,1.16,0,0,1,.88,1.4h0a1.17,1.17,0,0,1-1.4.88h0l-7-1.65a1.17,1.17,0,0,1-.88-1.4h0a1.17,1.17,0,0,1,1.4-.89Z" fill="#3b3b4c"/><path d="M186.29,422.18a32.18,32.18,0,1,0,37.07,26.41h0a32.19,32.19,0,0,0-37.07-26.41Zm10.07,59.91a28.57,28.57,0,1,1,23.43-32.9A28.56,28.56,0,0,1,196.36,482.09Z" fill="#f4ad00"/><path d="M177.26,397.08h0l.06-.06Z" fill="#1f1f39" opacity="0.46" style="isolation:isolate"/><path d="M183.61,390.9l10.5,70.43a1.16,1.16,0,0,1-1,1.32h0a1.17,1.17,0,0,1-1.33-1l-10.51-70.42a1.17,1.17,0,0,1,1-1.33h0A1.16,1.16,0,0,1,183.61,390.9Z" fill="#3b3b4c"/><path d="M165.86,386.69c-1.39,2.37,1.52,8.07,4.95,8.56s22.07-1.38,24-3.28c1.77-1.75,1-6.74-1.65-7.32-4.16-.88-16.38,2.45-19.38,2.59S167.47,383.92,165.86,386.69Z" fill="#fff"/><path d="M173.91,445.12c2.1-1.21,7-4.87,7-4.87l-3.51-5.35-7.28,5.59.07,5.13Z" fill="#efaea6"/><path d="M175,444.94c.5.47-.19.58-.89,1.32-1.63,1.74,2.9,8.86,3.42,10,.27.61-2,3.35-3.78.6-1.53-2.37-6.44-10-8.09-12.56a1.41,1.41,0,0,1,.15-1.73c1.58-1.69,4.57-3.44,5.1-2.76C172,440.71,173,443,175,444.94Z" fill="#1f1f39"/><path d="M208.54,411.59C207.28,421.2,179.62,444,179.62,444c-5.25.21-6.7-4.74-7.09-5.73,2.78-5.17,25.15-21.33,24.35-27.22-.75-5.38-24-10.91-29.3-25.65a18.43,18.43,0,0,1-1-4.28,19.69,19.69,0,0,1,.22-5.31c.25-1.48,1.65-6.2,6.1-4.94,3.95,1.13,5.64,2.85,6.75,4.75.77,1.33,1.26,2.75,2,4.14a10.06,10.06,0,0,0,3.33,3.65C191,387.46,209.82,402,208.54,411.59Z" fill="#3b3b4c"/><path d="M165.25,450l5.23,5a1.17,1.17,0,0,1,.05,1.65h0a1.17,1.17,0,0,1-1.65.05h0l-5.23-5a1.17,1.17,0,0,1,0-1.66h0a1.17,1.17,0,0,1,1.65,0Z" fill="#3b3b4c"/><circle cx="191.65" cy="455.82" r="7.44" fill="#3b3b4c"/><line x1="102.82" y1="372.82" x2="145.6" y2="372.11" fill="none"/><path d="M146,372a.11.11,0,0,1,0,.08.43.43,0,0,1-.44.33l-42.77.7c-.23,0-.39-.13-.37-.31a.45.45,0,0,1,.44-.32l42.78-.71A.33.33,0,0,1,146,372Z" fill="#703b10"/><line x1="109.28" y1="378.2" x2="149.4" y2="378.1" fill="none"/><path d="M149.78,378v.09a.42.42,0,0,1-.45.31l-40.12.1a.3.3,0,0,1-.34-.27v0a.4.4,0,0,1,.42-.32l40.12-.1A.33.33,0,0,1,149.78,378Z" fill="#703b10"/><line x1="122.96" y1="374.86" x2="138.97" y2="374.6" fill="none"/><path d="M139.37,374.51a.11.11,0,0,1,0,.08.42.42,0,0,1-.44.32l-16,.27c-.23,0-.39-.14-.37-.31a.44.44,0,0,1,.45-.32l16-.27A.33.33,0,0,1,139.37,374.51Z" fill="#703b10"/><line x1="134.79" y1="368.14" x2="150.8" y2="367.88" fill="none"/><path d="M151.21,367.79v.08a.43.43,0,0,1-.44.32l-16,.27c-.23,0-.39-.13-.37-.31a.43.43,0,0,1,.44-.32l16-.27A.34.34,0,0,1,151.21,367.79Z" fill="#703b10"/><path d="M213.13,358.73a18.3,18.3,0,0,0,3.84.07c1.71-.18,2.65-.59,3.95,0a3.23,3.23,0,0,0,3.47-.12c1.33-.64,1.43-4.64,0-4-2.05.91-1.51-.88-2.3-1.17s-1.62,1.91-4.54.6a6.43,6.43,0,0,0-4.26-.24C212.55,354.11,213.13,358.73,213.13,358.73Z" fill="#efaea6"/><path d="M202.46,367a19.12,19.12,0,0,0,3.82.32c1.73-.07,2.66-.4,3.94.25,1.12.58,3.9,0,5.37-1.16,1.32-1.06,1.44-4.13,0-3.55-5.86,2.38-3.06,0-3.84-.33s-1.77,1.74-4.57.28a6.63,6.63,0,0,0-4.23-.51C202.21,362.45,202.46,367,202.46,367Z" fill="#efaea6"/><path d="M181.72,379.79c-2,4.57-10,5.46-14.13,5.65a17.93,17.93,0,0,1-1-4.28,4.08,4.08,0,0,0,.23-1.66c1.8-.51,9.15-2.74,12.84-3.85l2.12-.65A6.69,6.69,0,0,1,181.72,379.79Z" fill="#1f1f39" opacity="0.4" style="isolation:isolate"/><path d="M178.7,330.24a6.8,6.8,0,0,0,.52,1.77c.47.92.39,2.36,1.56,3.72.89,1-3.82.29-3.82.29l-4.83-.83c-.26-2.13,1.59-6.84,1.74-8.79.16-2.14,2.57-4.33,2.57-4.33l1.95,4.13.05.09-.06.38A22.45,22.45,0,0,0,178.7,330.24Z" fill="#efaea6"/><path d="M178.46,326.29l-.07.38a25,25,0,0,0,.31,3.57c-2.56,1.11-4.22-1.77-3.6-2.62a21.13,21.13,0,0,1,2-1.93l1.33.51Z" fill="#1f1f39" opacity="0.14" style="isolation:isolate"/><path d="M172.48,331.41c1.91-.88,2.66,2.46,4.71,2.29,1.08-.09.77-.53,1.19-1.11.25-.37.49-.77,1.06-.33,11.71,8.8,5.79,36.95,7.36,38.58,1.3,1.33-6.57,6-12.08,5.6-7.56-.59-8.47-8.75-8.53-10.33s.22-28.59.22-28.59A39.85,39.85,0,0,0,172.48,331.41Z" fill="#fff"/><path d="M218.17,359.35c-.7.22-17.15,2-22.13-1.58-2.9-2.1-8.22-8.28-8.16-7.94.23,1.47-.53,1.05.09,2.95.5,1.54,1,3,1.33,4.11.8,2.84,5.14,14.61,2.28,18.92-1.82,2.73-3.69,2.8-5.22,1.77-2.63-1.75-2-11.78-4.43-21.09-1.9-7.2.7-12.05-1.08-18a29.39,29.39,0,0,1-1.39-6.27c11.95,2.53,16.47,18.11,19.56,20.05,3.41,2.15,18.42.4,19.17,1.68C218.47,354.46,218.53,359.23,218.17,359.35Z" fill="#0267a4"/><path d="M176.12,352.9a75.84,75.84,0,0,1-.54,13.53c-.73,6.11,2.15,9,.26,11.85-2.28,3.48-6.51,4.13-10,2.63-1.88-.81-1.22-8.06-.89-14h0a35.85,35.85,0,0,0,0-6.6,96.94,96.94,0,0,1-1.18-10.84,43.21,43.21,0,0,1-.13-5.69c0-.45.06-.89.11-1.33a15.25,15.25,0,0,1,.3-1.64,7.08,7.08,0,0,1,.63-1.68l.17-.28a24.15,24.15,0,0,1,7.69-7.43c.2.8.59,2.53,1.06,4.8.08.38.16.78.24,1.19s.19,1,.28,1.47l.21,1.1C175,343.93,175.74,348.63,176.12,352.9Z" fill="#0267a4"/><path d="M206,367.75c1.9,0,1.71-5.56,1.71-5.56s-16.79-2-19.57-3.36-1.46-1.61-14.71-18.74h0l-.24-.31a1,1,0,0,0-.1-.13,7.68,7.68,0,0,0-.64-.77,9.93,9.93,0,0,0-1.54-1.35l-.13-.1a10.18,10.18,0,0,0-1-.6,8.88,8.88,0,0,0-.82-.39c-2.79-1.18-4.37,4.82-3.32,6.77a11.15,11.15,0,0,0,1,1.35c.28.34.59.73,1,1.15l.3.36c.35.42.74.88,1.14,1.33l.58.66.4.44c5.38,6.2,13.92,15.56,15,16.32C186.48,366,205.08,367.75,206,367.75Z" fill="#0267a4"/><path d="M176.72,319c1.22,1.32,4.85,2.84,3.89,3.6s2.56,2.81,1.57,3.64c-2.42,2-6.47,2.7-7.71,1.77a28.51,28.51,0,0,1-3.65-4.42Z" fill="#efaea6"/><path d="M175.22,322.39c.86-.52,1-.36,1.37-1.05s-1.19-.71-.29-1.68,2-1.91,1.16-3.16c-1.14-1.82-2.44-.38-3.21.54-.5.6-1.65-.58-2.79.41-.89.78-.37,1.24-1.14,2-.47.44-2.09.38-2.41,1.6-.59,2.27,1.68,2.69,1.4,4.84-.34,2.5,5.22,2.92,5.31,2.26s-1.65-1.7-1.46-2.4c.28-1,.8-.53,1.77-.44s2.18-.75.62-1.28S174.45,322.83,175.22,322.39Z" fill="#1f1f39"/><path d="M177,334.66s-.09.08-.16.25a23.65,23.65,0,0,1-2.52,5.07,7.5,7.5,0,0,1-1.25,1.33,7.07,7.07,0,0,1-2.21,1.24h0l-.16.05h-.05a56.57,56.57,0,0,1-7,1.15c0-.45.06-.89.11-1.33l-1.44.11-.77.07c.2-.61.39-1.18.57-1.7l.77,0,1.16-.09a36.2,36.2,0,0,0,5.74-.74,8.77,8.77,0,0,0,1.61-.76l.37-.22.69-.48a12.94,12.94,0,0,0,1.38-1.19,18.17,18.17,0,0,0,2.12-2.51c.44-.6.34-1.32,1-1.52C177.75,333.13,177.27,334.79,177,334.66Z" fill="#1f1f39" opacity="0.18" style="isolation:isolate"/><path d="M178,334.81a1.15,1.15,0,0,1-1.11,0s-.06,0-.1.07a38.36,38.36,0,0,1-2.73,4,9.38,9.38,0,0,1-2.72,2.21,6.55,6.55,0,0,1-1,.42,36.2,36.2,0,0,1-6.62.93l-1.43.12-.78.06a24.73,24.73,0,0,0-5,.79c-3.1,1-6.23,6.43-11,8.25-2.91,1.11-14.45,3.05-15.86,2.85a3.67,3.67,0,0,1-2.83-1.89c-.22-.71.79-1.38,2.55-2.13s9.08.27,15-2.21,6.36-6.64,10.45-8.59c2.25-1.08,5.57-.88,8.56-.66l1.15.08a13.9,13.9,0,0,0,4.77-.16,9.77,9.77,0,0,0,2.33-1.22,14,14,0,0,0,1.82-1.53,19.39,19.39,0,0,0,2-2.41c.44-.6.44-.89,1.07-1.06a1.11,1.11,0,0,1,1.42.7l0,.05C178.19,333.9,178.34,334.64,178,334.81Z" fill="#f4ad00"/><path d="M178.06,319.58c1.67.67,1.86,1.25,1.7,1.77s-3.1,2.37-3.78,2.44a2.42,2.42,0,0,0-1.87,1.73c-.23.55-2.29,3.39-2.48,3.22-.45-.39.28-1.58.57-2.38a23.82,23.82,0,0,1,3.35-5C176.62,320.28,177.65,319.41,178.06,319.58Z" fill="#d3190b"/><path d="M171.82,328c-2.47.35-2.62,0-2,.65s1.81.08,2-.33S171.82,328,171.82,328Z" fill="#d3190b"/><path d="M171.58,328.32c-.7,1.14-.38.75-.07,1.68s.7-.26.54-.85S172,327.67,171.58,328.32Z" fill="#d3190b"/><path d="M157.33,439.57a.4.4,0,0,0,.29-.26,16.87,16.87,0,0,1,9.8-10.13.42.42,0,1,0-.29-.78h0A17.51,17.51,0,0,0,156.85,439a.4.4,0,0,0,.23.53h0A.49.49,0,0,0,157.33,439.57Z" fill="#603a3e"/><path d="M157.79,432.13A.45.45,0,0,0,158,432a19.26,19.26,0,0,1,5.2-5,20.29,20.29,0,0,1,6.7-2.63h0a.42.42,0,0,0-.19-.82,19.25,19.25,0,0,0-12.39,8,.41.41,0,0,0,.08.58h0A.46.46,0,0,0,157.79,432.13Z" fill="#603a3e"/><path d="M226.31,455.93a.28.28,0,0,0-.07.25,11.22,11.22,0,0,1-1.77,9.23.28.28,0,0,0,.15.36.28.28,0,0,0,.29,0,11.7,11.7,0,0,0,1.87-9.65.28.28,0,0,0-.33-.21A.27.27,0,0,0,226.31,455.93Z" fill="#603a3e"/><path d="M228.78,460.24a.25.25,0,0,0-.08.18,12.86,12.86,0,0,1-1,4.69,13.67,13.67,0,0,1-2.77,3.92h0a.29.29,0,0,0,0,.39.28.28,0,0,0,.4,0,12.89,12.89,0,0,0,4-9,.27.27,0,0,0-.25-.29.25.25,0,0,0-.23.09Z" fill="#603a3e"/><path d="M68.65,240.2a10.61,10.61,0,0,1,3.1,1.77l-2.25,2.71A7,7,0,0,0,64.93,243a5.17,5.17,0,0,0-3,.89,5.78,5.78,0,0,0-2.07,2.73,12.6,12.6,0,0,0-.77,4.75c0,2.83.52,4.91,1.58,6.27a5.1,5.1,0,0,0,4.24,2,6.61,6.61,0,0,0,2.73-.53A10.25,10.25,0,0,0,70,257.71l2.12,2.65a10,10,0,0,1-7.33,2.84,10.21,10.21,0,0,1-5.31-1.36,9.26,9.26,0,0,1-3.62-4,14.53,14.53,0,0,1-1.33-6.43A14,14,0,0,1,55.85,245a9.58,9.58,0,0,1,3.68-4,10,10,0,0,1,5.23-1.38A11.41,11.41,0,0,1,68.65,240.2Z" fill="#838bc5" stroke="#534741" stroke-miterlimit="10"/><path d="M86.85,246a7.08,7.08,0,0,1,2.76,3.17,11.53,11.53,0,0,1,.93,4.81,11.65,11.65,0,0,1-.94,4.87,7.16,7.16,0,0,1-2.77,3.19,9.12,9.12,0,0,1-8.72,0,7,7,0,0,1-2.77-3.15,11.63,11.63,0,0,1-.94-4.9,11.19,11.19,0,0,1,.95-4.78A7.32,7.32,0,0,1,78.13,246a9.15,9.15,0,0,1,8.72,0Zm-7.08,3.56a8.7,8.7,0,0,0-.89,4.46,8.79,8.79,0,0,0,.89,4.47,3.25,3.25,0,0,0,5.39,0A8.87,8.87,0,0,0,86,254a8.64,8.64,0,0,0-.88-4.42,3.24,3.24,0,0,0-4.51-.88,3.07,3.07,0,0,0-.88.88Z" fill="#838bc5" stroke="#534741" stroke-miterlimit="10"/><path d="M109.84,246.05a6.22,6.22,0,0,1,.89,3.83v12.83H107V250.42a8,8,0,0,0-.07-1.29,1.12,1.12,0,0,0-.3-.66.92.92,0,0,0-.66-.21,2.8,2.8,0,0,0-2.21,1.45v13h-3.24V250.42a9.31,9.31,0,0,0-.08-1.29,1.2,1.2,0,0,0-.29-.66.94.94,0,0,0-.66-.21,2.13,2.13,0,0,0-1.13.33,4,4,0,0,0-1.1,1.12v13H93.4V245.4h3.22l.28,1.8a7,7,0,0,1,1.67-1.72,3.42,3.42,0,0,1,2-.55,3,3,0,0,1,1.77.51,2.82,2.82,0,0,1,1.05,1.61,6.69,6.69,0,0,1,1.74-1.57,4,4,0,0,1,2.07-.55A3.14,3.14,0,0,1,109.84,246.05Z" fill="#838bc5" stroke="#534741" stroke-miterlimit="10"/><path d="M115.26,245.4h9.21v14.25H129v3.06H115.09v-3.06h5.07V248.47h-4.9Zm7.8-8.4a2.43,2.43,0,0,1,1,.93,2.64,2.64,0,0,1,0,2.61,2.36,2.36,0,0,1-1,.93,2.68,2.68,0,0,1-1.38.35,2.75,2.75,0,0,1-1.4-.35,2.39,2.39,0,0,1-1-.93,2.64,2.64,0,0,1,0-2.61,2.52,2.52,0,0,1,1-.93,3,3,0,0,1,1.4-.33A2.87,2.87,0,0,1,123.06,237Z" fill="#838bc5" stroke="#534741" stroke-miterlimit="10"/><path d="M134.13,262.71V245.4h3.76l.31,2.14a7.39,7.39,0,0,1,2.5-2,6.74,6.74,0,0,1,3-.64,4.56,4.56,0,0,1,3.55,1.33,5.43,5.43,0,0,1,1.23,3.79v12.67h-4.32v-11a10.15,10.15,0,0,0-.17-2.13,1.85,1.85,0,0,0-.62-1.11,2.09,2.09,0,0,0-1.33-.35c-1.26,0-2.47.77-3.61,2.3v12.28Z" fill="#838bc5" stroke="#534741" stroke-miterlimit="10"/><path d="M169.75,246.33a9.5,9.5,0,0,1-2.16.48,24.9,24.9,0,0,1-2.86.14,5.87,5.87,0,0,1,2.43,1.77,4.22,4.22,0,0,1,.8,2.66,5.45,5.45,0,0,1-.85,3,5.73,5.73,0,0,1-2.44,2.05,8.85,8.85,0,0,1-3.73.74,9.08,9.08,0,0,1-2.21-.24,1.2,1.2,0,0,0-.5.52,1.44,1.44,0,0,0-.19.7,1,1,0,0,0,.44.89,2.92,2.92,0,0,0,1.61.32H163a8.35,8.35,0,0,1,3.35.63,5.49,5.49,0,0,1,2.27,1.77,4.27,4.27,0,0,1,.81,2.51,4.69,4.69,0,0,1-1,3,6.3,6.3,0,0,1-3,1.9,15.73,15.73,0,0,1-4.87.65,14.77,14.77,0,0,1-4.81-.62,4.47,4.47,0,0,1-2.48-1.81,5.68,5.68,0,0,1-.72-3h3.84a2.6,2.6,0,0,0,.35,1.41,2.17,2.17,0,0,0,1.27.77,10.31,10.31,0,0,0,2.66.25,7.54,7.54,0,0,0,3.49-.58,1.81,1.81,0,0,0,1-1.69,1.64,1.64,0,0,0-.79-1.46,4.07,4.07,0,0,0-2.22-.52h-2.9a7.24,7.24,0,0,1-2.8-.44,3.56,3.56,0,0,1-1.66-1.23,2.87,2.87,0,0,1-.54-1.7,3.47,3.47,0,0,1,.49-1.77A4.34,4.34,0,0,1,156.2,256a5.71,5.71,0,0,1-2.31-2,5.45,5.45,0,0,1-.73-2.9,5.69,5.69,0,0,1,1-3.25,6.07,6.07,0,0,1,2.66-2.17,9.13,9.13,0,0,1,3.86-.77,18.43,18.43,0,0,0,3.31-.23,12.12,12.12,0,0,0,2.43-.65c.78-.33,1.54-.69,2.29-1.09Zm-11.37,2.36a3.34,3.34,0,0,0-.83,2.39,3.43,3.43,0,0,0,.84,2.45,3,3,0,0,0,2.33.88,2.85,2.85,0,0,0,2.26-.88,3.63,3.63,0,0,0,.81-2.49q0-3.24-3.06-3.24A3,3,0,0,0,158.38,248.69Z" fill="#838bc5" stroke="#534741" stroke-miterlimit="10"/><path d="M207.48,259.85a6.83,6.83,0,0,1-3.06,2.46,11.53,11.53,0,0,1-4.75.89,11.81,11.81,0,0,1-8.58-3.1l2.35-2.65a8.94,8.94,0,0,0,6.17,2.33,5.14,5.14,0,0,0,3.09-.86,2.78,2.78,0,0,0,1.21-2.41,2.88,2.88,0,0,0-.4-1.57,3.28,3.28,0,0,0-1.32-1.13,16.25,16.25,0,0,0-2.66-1,20.32,20.32,0,0,1-4.16-1.7,6.62,6.62,0,0,1-2.41-2.17,5.59,5.59,0,0,1-.77-3,5.38,5.38,0,0,1,1.06-3.33,6.77,6.77,0,0,1,2.91-2.21,10.44,10.44,0,0,1,4.13-.76,12.35,12.35,0,0,1,4.38.71,10.38,10.38,0,0,1,3.42,2.08l-2.25,2.52a8.06,8.06,0,0,0-5.25-2,5,5,0,0,0-2.75.68,2.18,2.18,0,0,0-1,1.94,2.12,2.12,0,0,0,.44,1.37,4.26,4.26,0,0,0,1.52,1.06,27,27,0,0,0,3.05,1.09,17.7,17.7,0,0,1,3.65,1.52,6.41,6.41,0,0,1,2.27,2.21,6.5,6.5,0,0,1,.82,3.39A6.27,6.27,0,0,1,207.48,259.85Z" fill="#838bc5" stroke="#534741" stroke-miterlimit="10"/><path d="M224.14,246a7.12,7.12,0,0,1,2.75,3.17,11.38,11.38,0,0,1,.94,4.81,11.51,11.51,0,0,1-1,4.87,7.07,7.07,0,0,1-2.76,3.19,9.12,9.12,0,0,1-8.72,0,7,7,0,0,1-2.77-3.15,11.63,11.63,0,0,1-.94-4.9,11.19,11.19,0,0,1,.95-4.78,7.31,7.31,0,0,1,2.78-3.22,8,8,0,0,1,4.35-1.11A8.16,8.16,0,0,1,224.14,246Zm-7.08,3.56a8.59,8.59,0,0,0-.89,4.46,8.69,8.69,0,0,0,.89,4.47,3.25,3.25,0,0,0,4.53.86,3.2,3.2,0,0,0,.86-.86,8.86,8.86,0,0,0,.89-4.51,8.63,8.63,0,0,0-.89-4.42,3.24,3.24,0,0,0-5.39,0Z" fill="#838bc5" stroke="#534741" stroke-miterlimit="10"/><path d="M243.75,246a7,7,0,0,1,2.75,3.17,11.39,11.39,0,0,1,.95,4.81,11.66,11.66,0,0,1-.95,4.87,7.1,7.1,0,0,1-2.77,3.19,8.23,8.23,0,0,1-4.36,1.12,8.35,8.35,0,0,1-4.36-1.1,6.93,6.93,0,0,1-2.76-3.15,11.64,11.64,0,0,1-.95-4.9,11.2,11.2,0,0,1,1-4.78,7.25,7.25,0,0,1,2.79-3.21,8,8,0,0,1,4.34-1.12A8.12,8.12,0,0,1,243.75,246Zm-7.08,3.56a8.7,8.7,0,0,0-.89,4.46,8.79,8.79,0,0,0,.89,4.47,3.25,3.25,0,0,0,4.53.86,3.2,3.2,0,0,0,.86-.86A8.75,8.75,0,0,0,243,254a8.63,8.63,0,0,0-.89-4.42,3.24,3.24,0,0,0-4.51-.88,3.07,3.07,0,0,0-.88.88Z" fill="#838bc5" stroke="#534741" stroke-miterlimit="10"/><path d="M251.81,262.71V245.4h3.76l.31,2.14a7.39,7.39,0,0,1,2.5-2,6.85,6.85,0,0,1,3-.64,4.54,4.54,0,0,1,3.54,1.33,5.44,5.44,0,0,1,1.24,3.79v12.67h-4.32v-11a10.15,10.15,0,0,0-.17-2.13,1.85,1.85,0,0,0-.62-1.11,2.09,2.09,0,0,0-1.33-.35c-1.27,0-2.47.77-3.61,2.3v12.28Z" fill="#838bc5" stroke="#534741" stroke-miterlimit="10"/><path d="M275.66,258.14a3.37,3.37,0,0,1,1.23-1.23,3.24,3.24,0,0,1,1.69-.45,3.32,3.32,0,0,1,1.71.45,3.4,3.4,0,0,1,1.24,1.23,3.36,3.36,0,0,1,0,3.36,3.28,3.28,0,0,1-2.93,1.68,3.21,3.21,0,0,1-1.69-.44,3.33,3.33,0,0,1-1.23-1.24,3.36,3.36,0,0,1,0-3.36Z" fill="#838bc5" stroke="#534741" stroke-miterlimit="10"/><path d="M295.28,258.14a3.27,3.27,0,0,1,1.22-1.23,3.34,3.34,0,0,1,3.4,0,3.27,3.27,0,0,1,1.22,1.23,3.39,3.39,0,0,1-1.22,4.6,3.39,3.39,0,0,1-3.4,0,3.39,3.39,0,0,1-1.22-4.6Z" fill="#838bc5" stroke="#534741" stroke-miterlimit="10"/><path d="M314.89,258.14a3.27,3.27,0,0,1,1.22-1.23,3.34,3.34,0,0,1,3.4,0,3.37,3.37,0,1,1-3.4,5.83,3.3,3.3,0,0,1-1.22-1.24A3.36,3.36,0,0,1,314.89,258.14Z" fill="#838bc5" stroke="#534741" stroke-miterlimit="10"/><path d="M18.9,609.69a.54.54,0,0,0,.3-.5.61.61,0,0,0-.1-.37,1.05,1.05,0,0,0-.39-.27,7.06,7.06,0,0,0-.89-.28,5.2,5.2,0,0,1-1-.36,1.76,1.76,0,0,1-.63-.55,1.6,1.6,0,0,1,.06-1.71,1.83,1.83,0,0,1,.84-.58,3.29,3.29,0,0,1,1.28-.22,3.69,3.69,0,0,1,2.25.66l-.59.89a2.93,2.93,0,0,0-1.62-.51c-.65,0-1,.19-1,.56a.43.43,0,0,0,.12.31A1.33,1.33,0,0,0,18,607c.19.07.49.17.88.28a5.46,5.46,0,0,1,1,.38,1.48,1.48,0,0,1,.83,1.44,1.48,1.48,0,0,1-.35,1,2.07,2.07,0,0,1-.95.62,4,4,0,0,1-1.33.21,4.45,4.45,0,0,1-1.4-.22,3.32,3.32,0,0,1-1.06-.62l.75-.84a2.55,2.55,0,0,0,.79.44,2.59,2.59,0,0,0,.92.17A1.65,1.65,0,0,0,18.9,609.69Z"/><path d="M27.41,610.44a3,3,0,0,1-.81.36,3.49,3.49,0,0,1-1,.12,2.45,2.45,0,0,1-1.16-.24,1.6,1.6,0,0,1-.72-.69,2.21,2.21,0,0,1-.24-1.07V606H22.26v-1h1.25v-1.25l1.44-.17V605h1.9l-.14,1H24.94v2.9a.84.84,0,0,0,.21.66,1,1,0,0,0,.71.2,2.06,2.06,0,0,0,1.05-.3Z"/><path d="M33.57,609.24a1,1,0,0,0,.09.48A.62.62,0,0,0,34,610l-.31,1a2.25,2.25,0,0,1-.8-.24,1.34,1.34,0,0,1-.49-.54,2,2,0,0,1-.81.59,2.68,2.68,0,0,1-1.05.19,2.14,2.14,0,0,1-1-.22,1.63,1.63,0,0,1-.67-.63,1.86,1.86,0,0,1-.23-1,1.63,1.63,0,0,1,.32-1,2,2,0,0,1,.94-.65,4.32,4.32,0,0,1,1.51-.22h.8v-.32a.86.86,0,0,0-.31-.73,1.47,1.47,0,0,0-.91-.24,3.53,3.53,0,0,0-.72.08,5.2,5.2,0,0,0-.84.22l-.34-1a6.76,6.76,0,0,1,1.09-.3,5.89,5.89,0,0,1,1-.1,2.73,2.73,0,0,1,1.77.51,1.77,1.77,0,0,1,.6,1.46Zm-1.92.45a1.44,1.44,0,0,0,.52-.52v-1.12h-.56a2.06,2.06,0,0,0-1.16.25.81.81,0,0,0-.35.75.82.82,0,0,0,.22.63,1,1,0,0,0,.67.22,1.41,1.41,0,0,0,.66-.2Z"/><path d="M39.09,609.64a3.36,3.36,0,0,0,.67-.37l.66.92a3.16,3.16,0,0,1-2.08.73,3,3,0,0,1-1.54-.37,2.5,2.5,0,0,1-1-1.06,3.81,3.81,0,0,1,0-3.17,2.75,2.75,0,0,1,1-1.1,3,3,0,0,1,1.55-.39,3.28,3.28,0,0,1,1.12.17,3,3,0,0,1,.93.53l-.64.89a2.3,2.3,0,0,0-1.36-.44,1.3,1.3,0,0,0-1.06.47,2.36,2.36,0,0,0-.38,1.48,2.1,2.1,0,0,0,.38,1.42,1.32,1.32,0,0,0,1,.44A1.82,1.82,0,0,0,39.09,609.64Z"/><path d="M42.05,602.69l1.44-.15v8.22H42.05ZM45.7,605h1.58l-2.13,2.57,2.35,3.2H45.8l-2.21-3.16Z"/><path d="M50.05,605.51a1.05,1.05,0,0,1,.89-.53,1,1,0,0,1,.53.15,1,1,0,0,1,.38.38,1,1,0,0,1,0,1,1,1,0,0,1-.38.38,1.1,1.1,0,0,1-.53.14,1.08,1.08,0,0,1-.53-.14,1,1,0,0,1-.38-1.43Zm0,3.83a1.09,1.09,0,0,1,.38-.39,1.1,1.1,0,0,1,.53-.14,1.08,1.08,0,0,1,.53.14,1.12,1.12,0,0,1,.39.39,1.07,1.07,0,0,1,0,1,.92.92,0,0,1-.39.39,1.08,1.08,0,0,1-.53.14,1.1,1.1,0,0,1-.53-.14A1.07,1.07,0,0,1,50.05,609.34Z"/><path d="M82.33,605c0-1.63-2-3.18-5.18-4.14.73-3.19.4-5.75-1-6.55A2.23,2.23,0,0,0,75,594v1.12a1.11,1.11,0,0,1,.57.13c.69.39,1,1.89.75,3.8a12.39,12.39,0,0,1-.26,1.48,24.29,24.29,0,0,0-3.18-.55,23.86,23.86,0,0,0-2.1-2.51C72.43,596,74,595.15,75,595.15V594h0c-1.38,0-3.19,1-5,2.7-1.83-1.7-3.64-2.66-5-2.66v1.12c1,0,2.58.83,4.22,2.34A25,25,0,0,0,67.12,600a23.13,23.13,0,0,0-3.19.55,14.2,14.2,0,0,1-.26-1.45c-.24-1.92,0-3.42.73-3.81a1.08,1.08,0,0,1,.58-.13v-1.12h0a2.17,2.17,0,0,0-1.14.28c-1.41.81-1.73,3.35-1,6.53-3.12,1-5.16,2.51-5.16,4.14s2,3.18,5.18,4.14c-.72,3.19-.4,5.75,1,6.55A2.21,2.21,0,0,0,65,616c1.38,0,3.19-1,5-2.69,1.83,1.7,3.63,2.66,5,2.66a2.26,2.26,0,0,0,1.13-.28c1.41-.82,1.73-3.35,1-6.54C80.3,608.19,82.33,606.64,82.33,605Zm-6.54-3.35c-.18.65-.44,1.33-.68,2q-.3-.6-.66-1.2c-.23-.4-.47-.79-.72-1.18.72.11,1.41.24,2.07.4ZM73.48,607c-.4.68-.8,1.33-1.22,1.92-.74.06-1.5.1-2.27.1s-1.52,0-2.26-.09c-.42-.6-.82-1.24-1.21-1.92s-.73-1.32-1-2c.31-.67.66-1.33,1-2s.8-1.32,1.21-1.92c.75-.06,1.51-.1,2.27-.1s1.52,0,2.26.1A21.65,21.65,0,0,1,73.47,603c.38.65.73,1.32,1,2A20.07,20.07,0,0,1,73.48,607Zm1.62-.65c.26.65.49,1.32.69,2-.66.16-1.35.29-2.07.4.25-.39.5-.78.73-1.19s.46-.81.66-1.21ZM70,611.71a19.33,19.33,0,0,1-1.39-1.61c.44,0,.91,0,1.38,0s.93,0,1.39,0A19.21,19.21,0,0,1,70,611.71Zm-3.74-3a20.67,20.67,0,0,1-2-.4,20.08,20.08,0,0,1,.67-2c.21.4.44.81.66,1.2s.48.81.72,1.19ZM70,598.3c.49.51,1,1,1.39,1.6-.44,0-.91,0-1.38,0s-.94,0-1.39,0A19.07,19.07,0,0,1,70,598.3Zm-3.72,3c-.25.39-.49.79-.73,1.19s-.44.81-.65,1.21a19.74,19.74,0,0,1-.69-2c.66-.12,1.35-.28,2.07-.39Zm-4.55,6.29c-1.77-.75-2.93-1.77-2.93-2.54s1.15-1.77,2.93-2.54c.45-.18.89-.35,1.39-.51A24.88,24.88,0,0,0,64.25,605a23.65,23.65,0,0,0-1.11,3q-.72-.22-1.41-.51Zm2.7,7.18c-.68-.39-1-1.88-.75-3.8.06-.47.15-1,.26-1.47a24.71,24.71,0,0,0,3.19.54,25,25,0,0,0,2.09,2.51c-1.64,1.53-3.17,2.36-4.22,2.36a1.16,1.16,0,0,1-.57-.13Zm11.92-3.82c.24,1.91,0,3.41-.73,3.8a1.08,1.08,0,0,1-.58.13c-1,0-2.58-.82-4.22-2.34A23.77,23.77,0,0,0,72.9,610a23.15,23.15,0,0,0,3.19-.56,14.77,14.77,0,0,1,.26,1.48Zm1.94-3.36a13.54,13.54,0,0,1-1.4.51A24.4,24.4,0,0,0,75.77,605a25.1,25.1,0,0,0,1.11-3c.5.15,1,.33,1.41.51,1.77.76,2.93,1.77,2.93,2.54s-1.16,1.8-2.93,2.55Z" fill="#61dafb"/><circle cx="70.01" cy="605.01" r="2.3" fill="#61dafb"/><path d="M110.9,607.31a6.42,6.42,0,0,0-2.82.66,5.71,5.71,0,0,1-.63-1.46,3.64,3.64,0,0,1-.06-1.23,9.07,9.07,0,0,1,.37-1.33c0-.05-.07-.32-.69-.32s-1.17.11-1.23.28a5.82,5.82,0,0,0-.26.93,22.24,22.24,0,0,1-1.91,3.66,3.72,3.72,0,0,1-.44-1.07,3.57,3.57,0,0,1-.06-1.22,9.66,9.66,0,0,1,.37-1.33c0-.06-.06-.33-.69-.33s-1.17.12-1.23.28-.13.56-.26.94-1.65,3.76-2,4.64c-.19.44-.37.81-.5,1.05s0,0,0,0l-.17.33h0c-.09.15-.18.29-.22.29a2,2,0,0,1,0-1c.23-1.17.77-3,.77-3.07s.1-.36-.35-.52a.56.56,0,0,0-.64.11s-.07.1-.07.1.49-2.07-.94-2.07a4.3,4.3,0,0,0-2.76,1.88l-2.09,1.14-1,.55-.07-.07c-1.74-1.85-5-3.17-4.82-5.66,0-.91.36-3.3,6.19-6.2,4.77-2.37,8.58-1.72,9.25-.28.94,2.07-2,5.92-7,6.47a3.74,3.74,0,0,1-3.13-.79c-.25-.27-.3-.3-.4-.24s-.06.34,0,.49a2.91,2.91,0,0,0,1.77,1.4,9.34,9.34,0,0,0,5.8-.57c3-1.16,5.35-4.38,4.66-7.08s-5.25-3.64-9.56-2.12a22,22,0,0,0-7.33,4.21c-2.37,2.21-2.75,4.15-2.59,4.95.56,2.87,4.51,4.74,6.09,6.12L90,610c-.79.39-3.81,2-4.56,3.63-.85,1.89.13,3.24.79,3.43A4.87,4.87,0,0,0,91.45,615a5.25,5.25,0,0,0,.47-4.84v0l.62-.37,1.14-.64a7.68,7.68,0,0,0-.41,2.07,4.31,4.31,0,0,0,.94,3,1,1,0,0,0,.74.24c.67,0,1-.55,1.31-1.21a18.93,18.93,0,0,0,.78-1.77s-.44,2.54.79,2.54c.44,0,.91-.59,1.12-.89h0l0-.06.07-.11h0c.18-.32.59-1,1.2-2.24.78-1.55,1.54-3.48,1.54-3.48a9.09,9.09,0,0,0,.3,1.25,11.19,11.19,0,0,0,.65,1.46l-.29.4h0c-.15.2-.31.41-.49.61a18.2,18.2,0,0,0-1.45,1.83.5.5,0,0,0,.13.67,1.21,1.21,0,0,0,.77.12,3.21,3.21,0,0,0,1.14-.26,3.91,3.91,0,0,0,1-.52,2.21,2.21,0,0,0,.91-1.91,3.66,3.66,0,0,0-.36-1.37,2.49,2.49,0,0,0,.17-.24,25.35,25.35,0,0,0,1.7-3c.08.43.18.84.3,1.26a9.29,9.29,0,0,0,.55,1.25,5.41,5.41,0,0,0-1.66,2.15c-.36,1-.08,1.5.44,1.61a1.63,1.63,0,0,0,.84-.17,3.87,3.87,0,0,0,1-.54,2.37,2.37,0,0,0,1.16-1.93,3.38,3.38,0,0,0-.26-1.13,5.88,5.88,0,0,1,3-.35c2.71.31,3.24,2,3.14,2.71a1.83,1.83,0,0,1-.86,1.22c-.19.12-.25.16-.23.24s.11.12.27.1a2.13,2.13,0,0,0,1.48-1.88c.07-1.67-1.52-3.5-4.34-3.48ZM90,614.36c-.89,1-2.16,1.33-2.69,1s-.36-1.77.75-2.82A14.15,14.15,0,0,1,90.19,611l.55-.33.06,0,.14-.08a3.88,3.88,0,0,1-.92,3.81Zm6.54-4.44c-.31.76-1,2.71-1.36,2.6s-.55-1.57-.07-3a6.73,6.73,0,0,1,1.06-2c.49-.55,1-.73,1.17-.51a10.7,10.7,0,0,1-.8,2.87Zm5.4,2.58c-.14.06-.26.11-.31.08s0-.12,0-.12.68-.73.94-1.06l.53-.67v.07a2.24,2.24,0,0,1-1.21,1.7Zm4.16-1c-.1-.08-.09-.3.24-1a3.84,3.84,0,0,1,.93-1.19,1.37,1.37,0,0,1,.08.53,1.71,1.71,0,0,1-1.25,1.66Z" fill="#cf649a"/><path d="M120.28,615.46a3.38,3.38,0,0,0,3.38,3.38h19.43a3.38,3.38,0,0,0,3.38-3.38V596a3.38,3.38,0,0,0-3.38-3.38H123.66a3.38,3.38,0,0,0-3.38,3.38h0v19.43Z" fill="#563d7c"/><path d="M131.14,604.24v-3.71h3.26a4.4,4.4,0,0,1,.89.08,2,2,0,0,1,.76.27,1.53,1.53,0,0,1,.54.56,1.78,1.78,0,0,1,.19.91,1.65,1.65,0,0,1-.59,1.44,2.54,2.54,0,0,1-1.53.45Zm-3.49-6.42v15.85h7.69a8,8,0,0,0,2.07-.26,5.73,5.73,0,0,0,1.81-.83,4.1,4.1,0,0,0,1.25-1.43,4.86,4.86,0,0,0-.26-4.62,3.85,3.85,0,0,0-2.19-1.48,3.86,3.86,0,0,0,1.62-1.32,3.45,3.45,0,0,0,.54-2,4.24,4.24,0,0,0-.37-1.86,3,3,0,0,0-1-1.22,4.58,4.58,0,0,0-1.6-.65,9.53,9.53,0,0,0-2.06-.2ZM131.14,611v-4.35h3.8a2.88,2.88,0,0,1,1.82.53,2,2,0,0,1,.69,1.74,2.25,2.25,0,0,1-.21,1,1.72,1.72,0,0,1-.57.63,2.44,2.44,0,0,1-.82.33,4.59,4.59,0,0,1-1,.1Z" fill="#fff"/></svg>