<svg id="eb0f1e9e-1c4c-4a9b-96fe-f4954d68b748" data-name="Layer 3" xmlns="http://www.w3.org/2000/svg" width="300" height="300" viewBox="0 0 300 300"><path d="M134.06,69c2,1.9,8.9.83,15.58,10.28s19.18,33.23,34.62,33S201.36,99,201.36,99s3.47-26.56-4.31-36.57S177.44,43.5,163.68,45.59s-26.56,11.54-26.56,11.54L134.06,69Zm41.85,3.21a7.49,7.49,0,1,1-7.49,7.49A7.49,7.49,0,0,1,175.91,72.16Z" fill="#ff5152" stroke="#231f20" stroke-miterlimit="10" stroke-width="2" fill-rule="evenodd"/><path d="M150.33,112.32s-34.2,28.64-43.1,43.1,24.47,41.71,36.43,27.25,13.9-33.09,14.74-40.87S150.33,112.32,150.33,112.32Z" fill="#374785" stroke="#fff" stroke-miterlimit="10" fill-rule="evenodd"/><path d="M59.4,224s19.37-13.38,26.14-22.52,6-11.68,11.4-10.71,19.88,4,20.44,7.65-5.84,9-7.23,10.29-8.48,4.72-14.32,6.95S84,218.82,80,220.22,59.4,224,59.4,224Z" fill="#a8d0e6" stroke="#fff" stroke-miterlimit="10" fill-rule="evenodd"/><path d="M158,136.17s32-7.16,33.66,4-10.28,30-23.77,37.26-22.39,7.37-22.39,7.37A39,39,0,0,0,156.31,162C157.63,148.06,158,136.17,158,136.17Z" fill="#f8e9a1" stroke="#000" stroke-miterlimit="10" fill-rule="evenodd"/><path d="M194.54,96.82ZM149.24,99Zm-22-18.71,10.44-11.15,1.21-2.84.07,0c14.58-31.39,69.89-18.73,55.69,28.12a5.08,5.08,0,0,0-.15,2.41c.27,1.59,1.29,2.71,2.2,4l-.11.09c4.22,7.48,6,19.69,6.08,28.63.08,23.61-9.92,44.55-32.56,54.54a86.34,86.34,0,0,1-20.23,5.71l-2.1-3.49c6.08-7.88,10.73-18.84,13.09-27.52,5.86-21.59,1.77-42.42-11.67-59.76a68.81,68.81,0,0,0-19.57-17.33l-2.39-1.39Zm-10.53,7ZM74,169.6Zm16.77,70.83Zm107.31-12.08Zm7.6-134.13c2.35-9.27,2.43-17.49.83-24.58-4.62-20.51-23.8-32.77-43.88-31-12.82,1.1-19.5,7.15-20.43,7.45a40.1,40.1,0,0,0-13.34,17l-.42.65L115.74,77.08h0c-1.1,1.16-2.18,2.06-2.62,3.66a5.28,5.28,0,0,0,3.63,6.48,37.14,37.14,0,0,1,8.72,4.11,60.26,60.26,0,0,1,10.18,8l-2,1.6C100.74,127.52,74.56,168.74,74,169.6l-.09.14L34.64,227a5.29,5.29,0,0,0,5.13,8.21c22.36-3.29,63.42-13.86,89.87-32.2l2.78-1.93,7.23,39.44H124.28v-.06H113.52v0l-9.78,0v0H84.87c-.92,0-2.27.62-2.27,1.82v7.34a1.83,1.83,0,0,0,1.33,1.62h9V267h0c0,1.17,1.37,1.8,2.32,1.8h6.13c1,0,2.32-.63,2.32-1.8h0V251.19h9.78V267h0c0,1.17,1.38,1.8,2.33,1.8H122c1,0,2.32-.63,2.32-1.8h0V251.17l67.57,0c1.45,4.37,2.85,7.37,6.24,10.76a23.71,23.71,0,1,0,0-33.54c-3.76,3.76-5.22,7.23-6.56,12.17h-16.9l-8-43.82c7.89-2.71,13.9-5.41,20.5-10.28,18.47-13.6,26.25-35,26.18-56.93a82.64,82.64,0,0,0-4.49-27.23,46.75,46.75,0,0,0-2.89-6.45l-.21-1.58ZM140.57,109c-22.6,18.11-42.85,44.31-55.78,63.47a45.36,45.36,0,0,0,14.64,11.92c6.67,3.52,15.7,6.46,27.65,7l1.47-.48a69,69,0,0,0,8.29-7.87,49.48,49.48,0,0,0,6.38-8.95c11.73-21.28,14-44.13.55-64.6l-1.32-2L140.57,109ZM205.7,254.26a12.93,12.93,0,0,1,0-18.3c8.14-8.14,22.1-2.31,22.1,9.15s-13.95,17.32-22.11,9.15Zm-62.48-52.87,13.12-2.08.4,2.17,7.15,39h-13.5l-7.17-39.12ZM78.69,181.48l1.86,1.84a63.68,63.68,0,0,0,28.14,15.81l.41,4.05c-16.61,8.4-36.17,14.31-53.15,18.13L53.66,218Z" fill="#fff" stroke="#24305e" stroke-miterlimit="10" stroke-width="4" fill-rule="evenodd"/></svg>